<svg width="169" height="55" viewBox="0 0 169 55" fill="none" xmlns="http://www.w3.org/2000/svg">
<circle cx="117.892" cy="42.5" r="12.5" fill="#EB2929"/>
<path fill-rule="evenodd" clip-rule="evenodd" d="M102.281 34.5H20.7846H10.3923H0L10.3923 42H98.7421C99.3107 39.1991 100.548 36.6411 102.281 34.5Z" fill="#EB2929"/>
<path fill-rule="evenodd" clip-rule="evenodd" d="M135.478 42.0001H164.593H164.643V41.9998C166.663 41.973 168.293 40.3269 168.293 38.3001C168.293 36.2733 166.663 34.6272 164.643 34.6004V34.6001H164.593H132.143V34.9948C133.835 36.9433 135.017 39.3481 135.478 42.0001Z" fill="#EB2929"/>
<path d="M25.6084 1.28418V20.2539H29.3584V25H19.4414V1.28418H25.6084ZM59.4902 15.1709C59.4902 17.5537 59.4316 19.2432 59.3145 20.2393C59.207 21.2256 58.8555 22.1289 58.2598 22.9492C57.6738 23.7695 56.8779 24.3994 55.8721 24.8389C54.8662 25.2783 53.6943 25.498 52.3564 25.498C51.0869 25.498 49.9443 25.293 48.9287 24.8828C47.9229 24.4629 47.1123 23.8379 46.4971 23.0078C45.8818 22.1777 45.5156 21.2744 45.3984 20.2979C45.2812 19.3213 45.2227 17.6123 45.2227 15.1709V11.1133C45.2227 8.73047 45.2764 7.0459 45.3838 6.05957C45.501 5.06348 45.8525 4.15527 46.4385 3.33496C47.0342 2.51465 47.835 1.88477 48.8408 1.44531C49.8467 1.00586 51.0186 0.786133 52.3564 0.786133C53.626 0.786133 54.7637 0.996094 55.7695 1.41602C56.7852 1.82617 57.6006 2.44629 58.2158 3.27637C58.8311 4.10645 59.1973 5.00977 59.3145 5.98633C59.4316 6.96289 59.4902 8.67188 59.4902 11.1133V15.1709ZM53.3232 7.37793C53.3232 6.27441 53.2598 5.57129 53.1328 5.26855C53.0156 4.95605 52.7666 4.7998 52.3857 4.7998C52.0635 4.7998 51.8145 4.92676 51.6387 5.18066C51.4727 5.4248 51.3896 6.15723 51.3896 7.37793V18.4521C51.3896 19.8291 51.4434 20.6787 51.5508 21.001C51.668 21.3232 51.9316 21.4844 52.3418 21.4844C52.7617 21.4844 53.0303 21.2988 53.1475 20.9277C53.2646 20.5566 53.3232 19.6729 53.3232 18.2764V7.37793ZM90.8232 1.28418V17.1338C90.8232 18.9307 90.7646 20.1953 90.6475 20.9277C90.5303 21.6504 90.1836 22.3975 89.6074 23.1689C89.0312 23.9307 88.2695 24.5117 87.3223 24.9121C86.3848 25.3027 85.2764 25.498 83.9971 25.498C82.5811 25.498 81.3311 25.2637 80.2471 24.7949C79.1631 24.3262 78.3525 23.7158 77.8154 22.9639C77.2783 22.2119 76.9609 21.4209 76.8633 20.5908C76.7656 19.751 76.7168 17.9932 76.7168 15.3174V1.28418H82.8838V19.0674C82.8838 20.1025 82.9375 20.7666 83.0449 21.0596C83.1621 21.3428 83.3916 21.4844 83.7334 21.4844C84.124 21.4844 84.373 21.3281 84.4805 21.0156C84.5977 20.6934 84.6562 19.9414 84.6562 18.7598V1.28418H90.8232ZM122.903 1.28418L119.373 11.9922L123.24 25H116.868L114.378 14.834V25H108.211V1.28418H114.378V10.498L117.117 1.28418H122.903ZM139.324 1.28418H149.607V6.03027H145.491V10.5273H149.344V15.0391H145.491V20.2539H150.018V25H139.324V1.28418Z" fill="#EB2929"/>
</svg>
