<svg width="703" height="581" viewBox="0 0 703 581" fill="none" xmlns="http://www.w3.org/2000/svg">
<path d="M172.5 89.1828C242.934 24.0963 733.897 -43.009 700 38.6828V406.683C623.954 532.846 587.578 573.663 441 503.683C357.126 616.903 219 593.683 149 503.683C13.0004 503.683 -17.5001 469.183 10.5 352.183C-34.9999 194.683 102.067 154.269 172.5 89.1828Z" fill="#FDECEA" stroke="#FDECEA"/>
<g clip-path="url(#clip0_51_610)">
<path fill-rule="evenodd" clip-rule="evenodd" d="M263.218 367.942C263.218 372.083 260.631 375.44 257.44 375.44C254.249 375.44 251.662 372.083 251.662 367.942C251.662 363.802 254.249 360.445 257.44 360.445C260.631 360.445 263.218 363.802 263.218 367.942Z" fill="#262726"/>
<path fill-rule="evenodd" clip-rule="evenodd" d="M261.364 367.995C261.364 370.21 260.174 372.005 258.708 372.005C257.24 372.005 256.051 370.21 256.051 367.995C256.051 365.78 257.24 363.985 258.708 363.985C260.174 363.985 261.364 365.78 261.364 367.995Z" fill="#E2EBB7"/>
<path fill-rule="evenodd" clip-rule="evenodd" d="M540.092 359.432C541.136 359.16 584.974 362.71 584.974 362.71C584.974 362.71 589.972 336.868 581.092 329.256C572.213 321.644 556.546 320.285 546.362 331.431C536.174 342.577 540.092 359.432 540.092 359.432Z" fill="#E57154"/>
<path fill-rule="evenodd" clip-rule="evenodd" d="M576.734 359.505C576.734 347.987 572.146 338.095 565.584 333.759V331.415H555.727C545.464 331.415 537.145 343.991 537.145 359.505C537.145 375.018 545.464 387.594 555.727 387.594H565.584V385.25C572.146 380.915 576.734 371.022 576.734 359.505Z" fill="#262726"/>
<path fill-rule="evenodd" clip-rule="evenodd" d="M555.727 332.231C545.914 332.231 537.929 344.466 537.929 359.505C537.929 374.544 545.914 386.779 555.727 386.779H564.8V385.25C564.8 384.971 564.938 384.711 565.167 384.562C571.717 380.233 575.95 370.398 575.95 359.505C575.95 348.612 571.717 338.777 565.167 334.448C564.938 334.298 564.8 334.038 564.8 333.759V332.231H555.727ZM565.584 388.41H555.727C545.051 388.41 536.364 375.443 536.364 359.505C536.364 343.567 545.051 330.6 555.727 330.6H565.584C566.018 330.6 566.369 330.965 566.369 331.415V333.318C573.155 338.053 577.518 348.267 577.518 359.505C577.518 370.743 573.155 380.956 566.369 385.692V387.594C566.369 388.045 566.018 388.41 565.584 388.41Z" fill="#262726"/>
<path fill-rule="evenodd" clip-rule="evenodd" d="M583.682 359.505C583.682 375.018 575.362 387.594 565.099 387.594C554.836 387.594 546.521 375.018 546.521 359.505C546.521 343.991 554.836 331.415 565.099 331.415C575.362 331.415 583.682 343.991 583.682 359.505Z" fill="#262726"/>
<path fill-rule="evenodd" clip-rule="evenodd" d="M565.099 332.231C555.286 332.231 547.301 344.466 547.301 359.505C547.301 374.544 555.286 386.779 565.099 386.779C574.913 386.779 582.898 374.544 582.898 359.505C582.898 344.466 574.913 332.231 565.099 332.231ZM565.099 388.41C554.423 388.41 545.736 375.443 545.736 359.505C545.736 343.567 554.423 330.6 565.099 330.6C575.776 330.6 584.467 343.567 584.467 359.505C584.467 375.443 575.776 388.41 565.099 388.41Z" fill="#262726"/>
<path fill-rule="evenodd" clip-rule="evenodd" d="M581.743 359.252C581.743 374.255 573.423 386.417 563.16 386.417C552.897 386.417 544.581 374.255 544.581 359.252C544.581 344.25 552.897 332.088 563.16 332.088C573.423 332.088 581.743 344.25 581.743 359.252Z" fill="#FFFFFE"/>
<path fill-rule="evenodd" clip-rule="evenodd" d="M583.682 359.505C583.682 375.018 575.362 387.594 565.099 387.594C554.836 387.594 546.521 375.018 546.521 359.505C546.521 343.991 554.836 331.415 565.099 331.415C575.362 331.415 583.682 343.991 583.682 359.505Z" fill="#262726"/>
<path fill-rule="evenodd" clip-rule="evenodd" d="M565.099 332.231C555.286 332.231 547.301 344.466 547.301 359.505C547.301 374.544 555.286 386.779 565.099 386.779C574.913 386.779 582.898 374.544 582.898 359.505C582.898 344.466 574.913 332.231 565.099 332.231ZM565.099 388.41C554.423 388.41 545.736 375.443 545.736 359.505C545.736 343.567 554.423 330.6 565.099 330.6C575.776 330.6 584.467 343.567 584.467 359.505C584.467 375.443 575.776 388.41 565.099 388.41Z" fill="#262726"/>
<path fill-rule="evenodd" clip-rule="evenodd" d="M576.268 359.505C576.268 368.887 571.941 376.493 566.604 376.493C561.268 376.493 556.94 368.887 556.94 359.505C556.94 350.122 561.268 342.516 566.604 342.516C571.941 342.516 576.268 350.122 576.268 359.505Z" fill="#FFFFFE"/>
<path fill-rule="evenodd" clip-rule="evenodd" d="M570.774 359.505C570.774 366.221 567.68 371.665 563.857 371.665C560.038 371.665 556.94 366.221 556.94 359.505C556.94 352.789 560.038 347.344 563.857 347.344C567.68 347.344 570.774 352.789 570.774 359.505Z" fill="#A7A6A8"/>
<path fill-rule="evenodd" clip-rule="evenodd" d="M572.835 211.093L379.941 186.744V126.498L572.835 164.185V211.093Z" fill="#A7A6A8"/>
<path fill-rule="evenodd" clip-rule="evenodd" d="M380.725 186.022L572.052 210.173V164.862L380.725 127.481V186.022ZM572.836 211.909C572.804 211.909 572.773 211.907 572.741 211.903L379.847 187.554C379.454 187.505 379.158 187.157 379.158 186.745V126.498C379.158 126.256 379.262 126.026 379.441 125.871C379.621 125.716 379.857 125.653 380.086 125.696L572.982 163.384C573.352 163.456 573.62 163.793 573.62 164.186V211.093C573.62 211.327 573.522 211.549 573.356 211.704C573.21 211.837 573.025 211.909 572.836 211.909Z" fill="#262726"/>
<path fill-rule="evenodd" clip-rule="evenodd" d="M576.276 211.093L383.382 186.744V126.498L576.276 164.185V211.093Z" fill="#E2EBB7"/>
<path fill-rule="evenodd" clip-rule="evenodd" d="M383.382 168.67V186.744L576.276 211.093V197.521L383.382 168.67Z" fill="#1A5A4C"/>
<path fill-rule="evenodd" clip-rule="evenodd" d="M384.165 186.022L575.492 210.173V164.862L384.165 127.481V186.022ZM576.276 211.909C576.245 211.909 576.213 211.907 576.182 211.903L383.288 187.554C382.894 187.505 382.599 187.157 382.599 186.745V126.498C382.599 126.256 382.702 126.026 382.882 125.871C383.061 125.716 383.296 125.653 383.526 125.696L576.422 163.384C576.793 163.456 577.061 163.793 577.061 164.186V211.093C577.061 211.327 576.962 211.549 576.797 211.704C576.651 211.837 576.465 211.909 576.276 211.909Z" fill="#262726"/>
<path fill-rule="evenodd" clip-rule="evenodd" d="M193.537 401.111C194.671 402.052 316.45 419.254 316.45 419.254L635.655 388.221L460 379.627C459.967 377.975 191.196 399.168 193.537 401.111Z" fill="#C2C2C2"/>
<path fill-rule="evenodd" clip-rule="evenodd" d="M592.195 204.081L376.529 173.137V375.091L538.236 365.486C543.813 365.155 548.172 360.351 548.172 354.537V344.642C548.172 334.168 556.33 325.677 566.388 325.677H566.758C576.82 325.677 584.975 334.168 584.975 344.642V362.71L593.346 362.213C596.373 362.033 598.733 359.428 598.733 356.275V211.894C598.733 207.954 595.943 204.619 592.195 204.081Z" fill="#55B9A4"/>
<path fill-rule="evenodd" clip-rule="evenodd" d="M592.195 204.081L376.529 173.137V177.792L598.189 208.961C597.2 206.4 594.962 204.478 592.195 204.081Z" fill="#E2EBB7"/>
<path fill-rule="evenodd" clip-rule="evenodd" d="M376.529 177.792V375.091L538.236 365.486C543.813 365.155 548.172 360.351 548.172 354.537V344.642C548.172 334.168 556.33 325.677 566.388 325.677H566.758C576.82 325.677 584.975 334.168 584.975 344.642V362.71L593.346 362.213C596.373 362.033 598.733 359.428 598.733 356.275V211.894C598.733 210.861 598.54 209.872 598.189 208.961L376.529 177.792Z" fill="#55B9A4"/>
<path fill-rule="evenodd" clip-rule="evenodd" d="M598.733 215.145L376.529 186.746V195.907L598.733 222.397V215.145Z" fill="#E57154"/>
<path fill-rule="evenodd" clip-rule="evenodd" d="M377.313 174.074V374.227L538.193 364.672C543.348 364.366 547.388 359.913 547.388 354.537V344.642C547.388 333.735 555.912 324.861 566.388 324.861H566.759C577.234 324.861 585.759 333.735 585.759 344.642V361.847L593.303 361.398C595.912 361.244 597.953 358.993 597.953 356.275V211.894C597.953 208.38 595.431 205.369 592.089 204.889L377.313 174.074ZM376.53 375.906C376.33 375.906 376.137 375.827 375.992 375.684C375.835 375.53 375.746 375.315 375.746 375.091V173.138C375.746 172.902 375.844 172.678 376.014 172.523C376.186 172.368 376.41 172.298 376.637 172.33L592.302 203.273C596.416 203.864 599.518 207.57 599.518 211.894V356.275C599.518 359.857 596.826 362.823 593.393 363.027L585.022 363.525C584.805 363.534 584.597 363.457 584.439 363.303C584.281 363.149 584.195 362.934 584.195 362.71V344.642C584.195 334.634 576.371 326.492 566.759 326.492H566.388C556.776 326.492 548.956 334.634 548.956 344.642V354.537C548.956 360.778 544.266 365.945 538.28 366.3L376.575 375.906C376.56 375.906 376.545 375.906 376.53 375.906Z" fill="#262726"/>
<path fill-rule="evenodd" clip-rule="evenodd" d="M376.529 285.873V375.091L538.602 365.465C543.974 365.146 548.172 360.518 548.172 354.917V344.642C548.172 334.168 556.33 325.677 566.388 325.677H566.758C576.82 325.677 584.975 334.168 584.975 344.642V362.71L593.011 362.233C596.223 362.042 598.733 359.273 598.733 355.922V290.031L376.529 285.873Z" fill="#20ADAD"/>
<path fill-rule="evenodd" clip-rule="evenodd" d="M376.529 375.091L538.602 365.465C543.974 365.146 548.172 360.518 548.172 354.917V352.443L376.529 359.766V375.091Z" fill="#A7A6A8"/>
<path fill-rule="evenodd" clip-rule="evenodd" d="M584.975 362.71L593.011 362.233C596.223 362.042 598.733 359.273 598.733 355.922V350.286L584.975 350.873V362.71Z" fill="#A7A6A8"/>
<path fill-rule="evenodd" clip-rule="evenodd" d="M376.529 356.664L548.172 349.169V344.642C548.172 344.104 548.199 343.574 548.239 343.048L376.529 347.467V356.664Z" fill="#373838"/>
<path fill-rule="evenodd" clip-rule="evenodd" d="M584.81 342.106C584.916 342.936 584.975 343.782 584.975 344.642V347.561L598.734 346.96V341.748L584.81 342.106Z" fill="#373838"/>
<path fill-rule="evenodd" clip-rule="evenodd" d="M598.733 308.448L376.529 311.205V317.718L598.733 311.935V308.448Z" fill="#E2EBB7"/>
<path fill-rule="evenodd" clip-rule="evenodd" d="M598.733 321.502L376.529 328.441V339.45L553.587 331.155C556.874 327.769 561.398 325.677 566.388 325.677H566.758C570.885 325.677 574.692 327.108 577.746 329.518L598.733 328.096V321.502Z" fill="#E2EBB7"/>
<path fill-rule="evenodd" clip-rule="evenodd" d="M598.733 290.031L376.529 285.873V301.589L598.733 302.818V290.031Z" fill="#262726"/>
<path fill-rule="evenodd" clip-rule="evenodd" d="M377.313 286.703V374.228L538.555 364.65C543.51 364.357 547.388 360.081 547.388 354.917V344.642C547.388 333.735 555.912 324.861 566.388 324.861H566.759C577.234 324.861 585.759 333.735 585.759 344.642V361.847L592.964 361.419C595.762 361.253 597.953 358.838 597.953 355.922V290.832L377.313 286.703ZM376.53 375.906C376.33 375.906 376.137 375.827 375.992 375.684C375.835 375.53 375.746 375.315 375.746 375.091V285.873C375.746 285.654 375.831 285.445 375.981 285.291C376.13 285.137 376.335 285.055 376.544 285.057L598.749 289.215C599.175 289.223 599.518 289.586 599.518 290.031V355.922C599.518 359.702 596.68 362.832 593.054 363.047L585.022 363.525C584.805 363.534 584.597 363.457 584.439 363.303C584.281 363.149 584.195 362.934 584.195 362.71V344.642C584.195 334.634 576.371 326.492 566.759 326.492H566.388C556.776 326.492 548.956 334.634 548.956 344.642V354.917C548.956 360.945 544.428 365.936 538.646 366.279L376.575 375.905C376.56 375.906 376.545 375.906 376.53 375.906Z" fill="#262726"/>
<path fill-rule="evenodd" clip-rule="evenodd" d="M591.883 229.52L383.382 204.63V283.439L591.883 287.252V229.52Z" fill="#24866E"/>
<path fill-rule="evenodd" clip-rule="evenodd" d="M383.382 204.63V283.439L495.306 285.486V217.991L383.382 204.63Z" fill="#1A5A4C"/>
<path fill-rule="evenodd" clip-rule="evenodd" d="M384.165 282.638L591.099 286.422V230.248L384.165 205.544V282.638ZM591.883 288.068C591.88 288.068 591.872 288.068 591.868 288.068L383.368 284.255C382.941 284.247 382.599 283.884 382.599 283.439V204.63C382.599 204.397 382.694 204.176 382.861 204.021C383.027 203.866 383.251 203.793 383.471 203.82L591.97 228.71C592.368 228.758 592.668 229.106 592.668 229.52V287.252C592.668 287.471 592.581 287.681 592.431 287.834C592.285 287.984 592.088 288.068 591.883 288.068Z" fill="#262726"/>
<path fill-rule="evenodd" clip-rule="evenodd" d="M380.534 252.865C379.896 252.865 379.261 252.597 378.797 252.068C377.922 251.07 377.99 249.522 378.948 248.611L416.184 213.237C417.142 212.326 418.63 212.397 419.505 213.395C420.38 214.393 420.312 215.94 419.353 216.851L382.118 252.226C381.667 252.654 381.099 252.865 380.534 252.865Z" fill="#E2EBB7"/>
<path fill-rule="evenodd" clip-rule="evenodd" d="M417.767 213.363C417.364 213.363 416.977 213.519 416.68 213.803L379.444 249.177C379.126 249.48 378.939 249.894 378.92 250.342C378.9 250.79 379.049 251.22 379.34 251.552C379.92 252.214 380.984 252.267 381.621 251.66L418.857 216.286C419.514 215.661 419.561 214.595 418.961 213.911C418.656 213.563 418.221 213.363 417.767 213.363ZM380.534 253.631C379.668 253.631 378.836 253.25 378.254 252.585C377.697 251.951 377.412 251.129 377.45 250.272C377.487 249.415 377.843 248.624 378.452 248.046L415.688 212.671C416.257 212.13 416.996 211.832 417.767 211.832C418.633 211.832 419.464 212.213 420.047 212.878C421.195 214.187 421.105 216.223 419.848 217.417L382.613 252.792C382.043 253.332 381.305 253.631 380.534 253.631Z" fill="#262726"/>
<path fill-rule="evenodd" clip-rule="evenodd" d="M596.058 263.875C595.612 263.875 595.167 263.687 594.844 263.317C594.229 262.617 594.276 261.533 594.95 260.895L621.037 236.112C621.707 235.473 622.752 235.523 623.363 236.222C623.977 236.922 623.93 238.006 623.256 238.644L597.169 263.427C596.854 263.727 596.456 263.875 596.058 263.875Z" fill="#E2EBB7"/>
<path fill-rule="evenodd" clip-rule="evenodd" d="M622.144 236.429C621.919 236.429 621.699 236.518 621.533 236.678L595.442 261.461C595.072 261.813 595.048 262.414 595.387 262.8C595.714 263.176 596.313 263.204 596.672 262.861L622.759 238.078C622.94 237.907 623.043 237.674 623.055 237.421C623.066 237.168 622.984 236.925 622.818 236.738C622.645 236.539 622.404 236.429 622.144 236.429ZM596.057 264.641C595.391 264.641 594.749 264.347 594.3 263.833C593.413 262.824 593.484 261.252 594.453 260.33L620.54 235.546C621.474 234.659 623.055 234.735 623.906 235.706C624.335 236.195 624.556 236.829 624.525 237.491C624.497 238.153 624.221 238.763 623.752 239.209L597.665 263.993C597.224 264.411 596.652 264.641 596.057 264.641Z" fill="#262726"/>
<path fill-rule="evenodd" clip-rule="evenodd" d="M282.969 205.02L376.529 173.137V375.091L282.969 361.893V205.02Z" fill="#E57154"/>
<path fill-rule="evenodd" clip-rule="evenodd" d="M321.774 194.892L372.306 179.193V186.533L330.196 196.32L321.774 194.892Z" fill="#E2EBB7"/>
<path fill-rule="evenodd" clip-rule="evenodd" d="M283.753 361.18L375.746 374.157V174.263L283.753 205.611V361.18ZM376.529 375.907C376.495 375.907 376.459 375.904 376.424 375.899L282.864 362.701C282.475 362.646 282.186 362.301 282.186 361.893V205.02C282.186 204.667 282.403 204.354 282.725 204.245L376.286 172.363C376.524 172.282 376.786 172.322 376.989 172.477C377.192 172.631 377.313 172.877 377.313 173.138V375.091C377.313 375.326 377.215 375.55 377.044 375.705C376.901 375.836 376.718 375.907 376.529 375.907Z" fill="#262726"/>
<path fill-rule="evenodd" clip-rule="evenodd" d="M359.789 368.168C359.789 351.823 353.279 337.782 343.966 331.629V328.302H329.976C315.411 328.302 303.604 346.151 303.604 368.168C303.604 390.185 315.411 408.034 329.976 408.034H343.966V404.707C353.279 398.554 359.789 384.514 359.789 368.168Z" fill="#262726"/>
<path fill-rule="evenodd" clip-rule="evenodd" d="M329.976 329.118C315.867 329.118 304.388 346.636 304.388 368.168C304.388 389.7 315.867 407.219 329.976 407.219H343.183V404.707C343.183 404.428 343.321 404.168 343.547 404.018C352.938 397.814 359.006 383.742 359.006 368.168C359.006 352.595 352.938 338.523 343.547 332.318C343.321 332.169 343.183 331.909 343.183 331.63V329.118H329.976ZM343.967 408.849H329.976C315.003 408.849 302.821 390.6 302.821 368.168C302.821 345.737 315.003 327.487 329.976 327.487H343.967C344.399 327.487 344.75 327.852 344.75 328.303V331.186C354.375 337.8 360.573 352.25 360.573 368.168C360.573 384.087 354.375 398.537 344.75 405.15V408.034C344.75 408.484 344.399 408.849 343.967 408.849Z" fill="#262726"/>
<path fill-rule="evenodd" clip-rule="evenodd" d="M369.65 368.168C369.65 390.185 357.843 408.034 343.279 408.034C328.714 408.034 316.907 390.185 316.907 368.168C316.907 346.151 328.714 328.302 343.279 328.302C357.843 328.302 369.65 346.151 369.65 368.168Z" fill="#262726"/>
<path fill-rule="evenodd" clip-rule="evenodd" d="M343.279 329.118C329.17 329.118 317.691 346.636 317.691 368.168C317.691 389.7 329.17 407.219 343.279 407.219C357.388 407.219 368.867 389.7 368.867 368.168C368.867 346.636 357.388 329.118 343.279 329.118ZM343.279 408.849C328.306 408.849 316.124 390.6 316.124 368.168C316.124 345.737 328.306 327.487 343.279 327.487C358.252 327.487 370.433 345.737 370.433 368.168C370.433 390.6 358.252 408.849 343.279 408.849Z" fill="#262726"/>
<path fill-rule="evenodd" clip-rule="evenodd" d="M366.899 367.81C366.899 389.102 355.092 406.363 340.528 406.363C325.963 406.363 314.156 389.102 314.156 367.81C314.156 346.518 325.963 329.258 340.528 329.258C355.092 329.258 366.899 346.518 366.899 367.81Z" fill="#FFFFFE"/>
<path fill-rule="evenodd" clip-rule="evenodd" d="M369.65 368.168C369.65 390.185 357.843 408.034 343.279 408.034C328.714 408.034 316.907 390.185 316.907 368.168C316.907 346.151 328.714 328.302 343.279 328.302C357.843 328.302 369.65 346.151 369.65 368.168Z" fill="#262726"/>
<path fill-rule="evenodd" clip-rule="evenodd" d="M343.279 329.118C329.17 329.118 317.691 346.636 317.691 368.168C317.691 389.7 329.17 407.219 343.279 407.219C357.388 407.219 368.867 389.7 368.867 368.168C368.867 346.636 357.388 329.118 343.279 329.118ZM343.279 408.849C328.306 408.849 316.124 390.6 316.124 368.168C316.124 345.737 328.306 327.487 343.279 327.487C358.252 327.487 370.433 345.737 370.433 368.168C370.433 390.6 358.252 408.849 343.279 408.849Z" fill="#262726"/>
<path fill-rule="evenodd" clip-rule="evenodd" d="M359.132 368.168C359.132 381.484 352.99 392.279 345.415 392.279C337.839 392.279 331.697 381.484 331.697 368.168C331.697 354.853 337.839 344.058 345.415 344.058C352.99 344.058 359.132 354.853 359.132 368.168Z" fill="#FFFFFE"/>
<path fill-rule="evenodd" clip-rule="evenodd" d="M351.335 368.168C351.335 377.7 346.939 385.426 341.516 385.426C336.093 385.426 331.697 377.7 331.697 368.168C331.697 358.637 336.093 350.91 341.516 350.91C346.939 350.91 351.335 358.637 351.335 368.168Z" fill="#A7A6A8"/>
<path fill-rule="evenodd" clip-rule="evenodd" d="M641.215 237.8L591.883 229.52L383.382 204.63L425.602 216.345L641.215 237.8Z" fill="#E57154"/>
<path fill-rule="evenodd" clip-rule="evenodd" d="M425.742 215.54L617.131 234.584L591.757 230.326L393.913 206.708L425.742 215.54ZM641.216 238.615C641.192 238.615 641.164 238.614 641.141 238.611L425.528 217.157C425.485 217.153 425.443 217.145 425.401 217.133L383.18 205.418C382.784 205.308 382.536 204.898 382.612 204.478C382.689 204.058 383.062 203.769 383.471 203.82L591.97 228.71L641.342 236.994C641.76 237.065 642.047 237.467 641.992 237.904C641.941 238.313 641.606 238.615 641.216 238.615Z" fill="#262726"/>
<path fill-rule="evenodd" clip-rule="evenodd" d="M324.908 197.951C324.124 196.728 293.962 164.105 293.962 164.105V192.272L324.908 197.951Z" fill="#55B9A4"/>
<path fill-rule="evenodd" clip-rule="evenodd" d="M294.745 191.587L322.815 196.739C318.383 191.771 304.831 177.043 294.745 166.129V191.587ZM324.908 198.767C324.863 198.767 324.817 198.762 324.772 198.754L293.826 193.075C293.452 193.006 293.179 192.668 293.179 192.272V164.105C293.179 163.773 293.373 163.473 293.669 163.349C293.967 163.224 294.305 163.3 294.527 163.54C297.618 166.884 324.761 196.25 325.56 197.498C325.734 197.77 325.735 198.124 325.564 198.397C325.417 198.63 325.17 198.767 324.908 198.767Z" fill="#262726"/>
<path fill-rule="evenodd" clip-rule="evenodd" d="M222.201 209.184L225.656 183.868C227.073 173.484 233.54 164.598 242.76 160.369L286.007 140.532C298.808 134.66 312.909 145.435 311.364 159.908L307.506 196.054L222.201 209.184Z" fill="#A7A6A8"/>
<path fill-rule="evenodd" clip-rule="evenodd" d="M293.346 139.715C290.947 139.715 288.584 140.24 286.322 141.278L243.076 161.115C234.041 165.259 227.819 173.808 226.431 183.982L223.124 208.217L306.794 195.339L310.585 159.819C311.139 154.632 309.622 149.657 306.315 145.81C302.984 141.936 298.257 139.715 293.346 139.715ZM222.201 209.999C221.995 209.999 221.796 209.915 221.648 209.762C221.473 209.581 221.39 209.324 221.425 209.069L224.879 183.753C226.345 173.016 232.911 163.996 242.444 159.623L285.69 139.785C288.153 138.656 290.729 138.083 293.346 138.083C298.702 138.083 303.855 140.503 307.482 144.722C311.091 148.92 312.746 154.345 312.142 159.998L308.284 196.144C308.245 196.513 307.972 196.807 307.621 196.861L222.315 209.99C222.277 209.996 222.239 209.999 222.201 209.999Z" fill="#262726"/>
<path fill-rule="evenodd" clip-rule="evenodd" d="M218.761 209.184L222.215 183.868C223.632 173.484 230.1 164.598 239.32 160.369L282.567 140.532C295.368 134.66 309.469 145.435 307.924 159.908L304.066 196.054L218.761 209.184Z" fill="#E2EBB7"/>
<path fill-rule="evenodd" clip-rule="evenodd" d="M289.906 139.715C287.508 139.715 285.145 140.24 282.883 141.278L239.636 161.115C230.602 165.259 224.379 173.808 222.992 183.982L219.684 208.217L303.354 195.339L307.146 159.819C307.699 154.632 306.183 149.657 302.875 145.81C299.544 141.936 294.817 139.715 289.906 139.715ZM218.761 209.999C218.556 209.999 218.357 209.915 218.209 209.762C218.034 209.581 217.95 209.324 217.985 209.069L221.44 183.753C222.905 173.016 229.471 163.996 239.004 159.623L282.251 139.785C284.713 138.656 287.289 138.083 289.906 138.083C295.263 138.083 300.415 140.503 304.042 144.722C307.651 148.92 309.306 154.345 308.703 159.998L304.845 196.144C304.806 196.513 304.533 196.807 304.181 196.861L218.876 209.99C218.838 209.996 218.799 209.999 218.761 209.999Z" fill="#262726"/>
<path fill-rule="evenodd" clip-rule="evenodd" d="M437.558 238.327L437.306 238.311C430.319 237.866 424.514 233.926 424.514 229.521V215.655L449.725 218.314V231.51C449.725 235.702 444.351 238.759 437.558 238.327Z" fill="#6FC3BE"/>
<path fill-rule="evenodd" clip-rule="evenodd" d="M425.297 216.557V229.521C425.297 233.429 430.819 237.081 437.354 237.497L437.607 237.513C443.842 237.913 448.942 235.138 448.942 231.51V219.052L425.297 216.557ZM438.828 239.183C438.396 239.183 437.956 239.169 437.51 239.141L437.257 239.125C429.799 238.651 423.73 234.342 423.73 229.521V215.655C423.73 215.424 423.824 215.205 423.989 215.05C424.153 214.895 424.374 214.82 424.593 214.843L449.804 217.503C450.204 217.545 450.509 217.896 450.509 218.314V231.51C450.509 235.885 445.487 239.183 438.828 239.183Z" fill="#262726"/>
<path fill-rule="evenodd" clip-rule="evenodd" d="M461.551 239.852L461.323 239.838C454.985 239.435 449.725 235.702 449.725 231.51V218.314L472.61 220.729V233.315C472.61 237.314 467.722 240.245 461.551 239.852Z" fill="#E57154"/>
<path fill-rule="evenodd" clip-rule="evenodd" d="M450.508 219.217V231.51C450.508 235.208 455.483 238.65 461.371 239.024L461.599 239.038C467.253 239.399 471.827 236.761 471.827 233.315V221.466L450.508 219.217ZM462.653 240.703C462.275 240.703 461.893 240.691 461.504 240.666L461.276 240.652C454.474 240.22 448.941 236.118 448.941 231.51V218.314C448.941 218.084 449.035 217.864 449.2 217.71C449.363 217.555 449.586 217.48 449.803 217.503L472.689 219.917C473.089 219.959 473.393 220.31 473.393 220.728V233.315C473.393 237.527 468.776 240.703 462.653 240.703Z" fill="#262726"/>
<path fill-rule="evenodd" clip-rule="evenodd" d="M483.383 241.241L483.175 241.228C477.399 240.86 472.61 237.314 472.61 233.315V220.729L493.477 222.93V234.962C493.477 238.784 489.013 241.599 483.383 241.241Z" fill="#6FC3BE"/>
<path fill-rule="evenodd" clip-rule="evenodd" d="M473.394 221.631V233.315C473.394 236.824 477.895 240.074 483.222 240.413L483.432 240.427C488.532 240.753 492.693 238.24 492.693 234.962V223.667L473.394 221.631ZM484.343 242.087C484.012 242.087 483.675 242.077 483.335 242.055L483.126 242.041C476.896 241.646 471.827 237.731 471.827 233.315V220.728C471.827 220.498 471.921 220.278 472.085 220.124C472.249 219.969 472.47 219.894 472.689 219.917L493.556 222.118C493.956 222.16 494.26 222.511 494.26 222.93V234.962C494.26 239.024 489.997 242.087 484.343 242.087Z" fill="#262726"/>
<path fill-rule="evenodd" clip-rule="evenodd" d="M503.33 242.509L503.139 242.497C497.854 242.161 493.477 238.784 493.477 234.962V222.93L512.578 224.945V236.469C512.578 240.13 508.487 242.837 503.33 242.509Z" fill="#E57154"/>
<path fill-rule="evenodd" clip-rule="evenodd" d="M494.26 223.832V234.962C494.26 238.297 498.348 241.375 503.187 241.683L503.377 241.695C508.051 241.994 511.797 239.594 511.797 236.469V225.682L494.26 223.832ZM504.172 243.352C503.879 243.352 503.583 243.342 503.282 243.323L503.092 243.311C497.358 242.947 492.693 239.201 492.693 234.962V222.93C492.693 222.699 492.787 222.48 492.952 222.325C493.115 222.17 493.336 222.094 493.556 222.118L512.661 224.134C513.06 224.176 513.363 224.527 513.363 224.945V236.469C513.363 240.393 509.412 243.352 504.172 243.352Z" fill="#262726"/>
<path fill-rule="evenodd" clip-rule="evenodd" d="M521.628 243.673L521.451 243.662C516.599 243.353 512.579 240.13 512.579 236.469V224.945L530.137 226.797V237.854C530.137 241.367 526.369 243.974 521.628 243.673Z" fill="#6FC3BE"/>
<path fill-rule="evenodd" clip-rule="evenodd" d="M513.363 225.848V236.469C513.363 239.646 517.091 242.567 521.501 242.848L521.675 242.859C525.986 243.128 529.352 240.885 529.352 237.854V227.535L513.363 225.848ZM522.368 244.512C522.108 244.512 521.844 244.504 521.58 244.487L521.403 244.476C516.106 244.139 511.797 240.547 511.797 236.469V224.945C511.797 224.715 511.891 224.495 512.055 224.34C512.22 224.186 512.44 224.109 512.661 224.134L530.215 225.986C530.613 226.028 530.921 226.379 530.921 226.797V237.854C530.921 241.65 527.244 244.512 522.368 244.512Z" fill="#262726"/>
<path fill-rule="evenodd" clip-rule="evenodd" d="M538.472 244.744L538.311 244.734C533.838 244.449 530.137 241.367 530.137 237.854V226.797L546.323 228.505V239.131C546.323 242.507 542.847 245.022 538.472 244.744Z" fill="#E57154"/>
<path fill-rule="evenodd" clip-rule="evenodd" d="M530.921 227.7V237.854C530.921 240.886 534.326 243.663 538.358 243.92L538.52 243.93C542.457 244.181 545.539 242.029 545.539 239.131V229.243L530.921 227.7ZM539.131 245.581C538.898 245.581 538.662 245.573 538.425 245.558L538.26 245.548C533.349 245.236 529.353 241.784 529.353 237.854V226.797C529.353 226.567 529.447 226.347 529.609 226.193C529.774 226.037 529.991 225.964 530.216 225.986L546.402 227.694C546.804 227.736 547.108 228.087 547.108 228.505V239.131C547.108 242.808 543.679 245.581 539.131 245.581Z" fill="#262726"/>
<path fill-rule="evenodd" clip-rule="evenodd" d="M554.028 245.733L553.879 245.724C549.74 245.461 546.323 242.507 546.323 239.131V228.505L561.3 230.085V240.313C561.3 243.562 558.076 245.991 554.028 245.733Z" fill="#6FC3BE"/>
<path fill-rule="evenodd" clip-rule="evenodd" d="M547.108 229.408V239.131C547.108 242.028 550.229 244.675 553.926 244.91L554.076 244.919C557.702 245.15 560.516 243.088 560.516 240.313V230.822L547.108 229.408ZM554.616 246.567C554.407 246.567 554.194 246.561 553.981 246.547L553.831 246.538C549.26 246.247 545.539 242.924 545.539 239.131V228.505C545.539 228.275 545.634 228.055 545.799 227.9C545.961 227.745 546.181 227.669 546.402 227.694L561.375 229.273C561.777 229.315 562.08 229.666 562.08 230.085V240.313C562.08 243.878 558.872 246.567 554.616 246.567Z" fill="#262726"/>
<path fill-rule="evenodd" clip-rule="evenodd" d="M568.441 246.65L568.303 246.641C564.465 246.397 561.3 243.562 561.3 240.313V230.085L575.189 231.551V241.409C575.189 244.54 572.197 246.889 568.441 246.65Z" fill="#E57154"/>
<path fill-rule="evenodd" clip-rule="evenodd" d="M562.08 230.987V240.313C562.08 243.133 564.894 245.607 568.351 245.827L568.489 245.836C571.815 246.04 574.404 244.07 574.408 241.409V232.288L562.08 230.987ZM568.966 247.482C568.776 247.482 568.587 247.476 568.394 247.464L568.256 247.455C563.988 247.184 560.516 243.979 560.516 240.313V230.085C560.516 229.855 560.606 229.635 560.772 229.48C560.937 229.325 561.162 229.25 561.375 229.273L575.268 230.739C575.67 230.781 575.973 231.132 575.973 231.55V241.409C575.973 244.815 572.895 247.482 568.966 247.482Z" fill="#262726"/>
<path fill-rule="evenodd" clip-rule="evenodd" d="M581.829 247.502L581.703 247.493C578.133 247.266 575.188 244.54 575.188 241.409V231.551L588.112 232.914V242.428C588.112 245.451 585.325 247.724 581.829 247.502Z" fill="#6FC3BE"/>
<path fill-rule="evenodd" clip-rule="evenodd" d="M575.973 232.453V241.408C575.973 244.112 578.566 246.477 581.751 246.679L581.877 246.687C584.979 246.888 587.331 244.982 587.331 242.428V233.651L575.973 232.453ZM582.302 248.332C582.129 248.332 581.956 248.327 581.782 248.315L581.656 248.307C577.66 248.053 574.408 244.958 574.408 241.408V231.55C574.408 231.32 574.499 231.1 574.664 230.946C574.83 230.79 575.043 230.714 575.267 230.739L588.191 232.103C588.593 232.145 588.896 232.496 588.896 232.914V242.428C588.896 245.739 585.999 248.332 582.302 248.332Z" fill="#262726"/>
<path fill-rule="evenodd" clip-rule="evenodd" d="M594.304 248.295L594.182 248.287C590.855 248.075 588.112 245.451 588.112 242.428V232.914L600.165 234.186V243.379C600.165 246.3 597.563 248.502 594.304 248.295Z" fill="#E57154"/>
<path fill-rule="evenodd" clip-rule="evenodd" d="M588.897 233.816V242.429C588.897 245.023 591.289 247.286 594.229 247.473L594.351 247.481C597.201 247.656 599.384 245.834 599.384 243.379V234.923L588.897 233.816ZM594.726 249.124C594.572 249.124 594.414 249.119 594.257 249.109L594.135 249.101C590.383 248.863 587.332 245.869 587.332 242.429V232.914C587.332 232.684 587.423 232.464 587.588 232.309C587.754 232.154 587.971 232.079 588.191 232.103L600.243 233.374C600.645 233.416 600.949 233.767 600.949 234.186V243.379C600.949 246.6 598.218 249.124 594.726 249.124Z" fill="#262726"/>
<path fill-rule="evenodd" clip-rule="evenodd" d="M605.95 249.035L605.835 249.028C602.726 248.83 600.164 246.3 600.164 243.379V234.186L611.432 235.374V244.268C611.432 247.093 609 249.229 605.95 249.035Z" fill="#6FC3BE"/>
<path fill-rule="evenodd" clip-rule="evenodd" d="M600.948 235.088V243.379C600.948 245.872 603.163 248.041 605.883 248.214L605.997 248.221C608.618 248.389 610.648 246.63 610.648 244.268V236.111L600.948 235.088ZM606.332 249.863C606.19 249.863 606.044 249.858 605.899 249.849L605.788 249.842C602.257 249.617 599.384 246.718 599.384 243.379V234.185C599.384 233.955 599.474 233.735 599.64 233.581C599.806 233.426 600.022 233.351 600.243 233.374L611.511 234.562C611.909 234.604 612.216 234.955 612.216 235.374V244.268C612.216 247.405 609.631 249.863 606.332 249.863Z" fill="#262726"/>
<path fill-rule="evenodd" clip-rule="evenodd" d="M616.847 249.728L616.74 249.722C613.828 249.536 611.432 247.093 611.432 244.268V235.374L621.986 236.488V245.101C621.986 247.837 619.704 249.91 616.847 249.728Z" fill="#E57154"/>
<path fill-rule="evenodd" clip-rule="evenodd" d="M612.216 236.276V244.268C612.216 246.666 614.265 248.747 616.788 248.908L616.894 248.914C619.318 249.069 621.202 247.375 621.202 245.101V237.225L612.216 236.276ZM617.194 250.555C617.064 250.555 616.93 250.55 616.8 250.542L616.693 250.535C613.359 250.323 610.647 247.512 610.647 244.268V235.374C610.647 235.143 610.742 234.924 610.908 234.769C611.069 234.614 611.29 234.537 611.511 234.562L622.065 235.676C622.467 235.718 622.771 236.069 622.771 236.488V245.101C622.771 248.159 620.319 250.555 617.194 250.555Z" fill="#262726"/>
<path fill-rule="evenodd" clip-rule="evenodd" d="M627.067 250.378L626.968 250.372C624.237 250.198 621.986 247.837 621.986 245.101V236.488L631.895 237.533V245.883C631.895 248.535 629.751 250.549 627.067 250.378Z" fill="#6FC3BE"/>
<path fill-rule="evenodd" clip-rule="evenodd" d="M622.771 237.39V245.101C622.771 247.41 624.674 249.409 627.015 249.558L627.114 249.564C629.36 249.706 631.11 248.074 631.11 245.883V238.27L622.771 237.39ZM627.386 251.203C627.264 251.203 627.142 251.2 627.019 251.192L626.921 251.185C623.768 250.985 621.202 248.256 621.202 245.101V236.488C621.202 236.257 621.297 236.037 621.462 235.883C621.624 235.728 621.845 235.654 622.065 235.676L631.974 236.721C632.376 236.764 632.679 237.115 632.679 237.533V245.883C632.679 248.867 630.354 251.203 627.386 251.203Z" fill="#262726"/>
<path fill-rule="evenodd" clip-rule="evenodd" d="M636.671 250.989L636.581 250.983C634.011 250.819 631.895 248.535 631.895 245.883V237.533L641.215 238.516V246.618C641.215 249.191 639.198 251.15 636.671 250.989Z" fill="#E57154"/>
<path fill-rule="evenodd" clip-rule="evenodd" d="M632.679 238.435V245.883C632.679 248.108 634.449 250.031 636.628 250.169L636.719 250.175C638.796 250.303 640.431 248.732 640.431 246.618V239.253L632.679 238.435ZM636.963 251.814C636.849 251.814 636.738 251.81 636.624 251.803L636.53 251.797C633.542 251.607 631.11 248.954 631.11 245.883V237.533C631.11 237.303 631.205 237.083 631.37 236.928C631.536 236.773 631.753 236.697 631.974 236.722L641.295 237.705C641.697 237.747 642 238.098 642 238.516V246.618C642 249.532 639.785 251.814 636.963 251.814Z" fill="#262726"/>
<path fill-rule="evenodd" clip-rule="evenodd" d="M628.052 294.838L411.763 289.843C410.28 289.809 409.092 288.553 409.081 287.009L409.055 283.345L630.83 288.467L630.854 291.961C630.866 293.572 629.597 294.874 628.052 294.838Z" fill="#80CBD2"/>
<path fill-rule="evenodd" clip-rule="evenodd" d="M409.844 284.18L409.864 287.003C409.872 288.114 410.714 289.003 411.781 289.027L628.068 294.023L628.115 294.839V294.023C628.639 294.023 629.132 293.809 629.502 293.42C629.873 293.031 630.074 292.515 630.07 291.967L630.054 289.265L409.844 284.18ZM628.115 295.654C628.107 295.654 628.04 295.653 628.032 295.653L411.746 290.659C409.827 290.614 408.312 289.014 408.298 287.015L408.271 283.352C408.271 283.131 408.354 282.92 408.505 282.765C408.656 282.61 408.86 282.529 409.072 282.53L630.846 287.652C631.272 287.662 631.611 288.02 631.615 288.461L631.638 291.955C631.646 292.941 631.284 293.87 630.614 294.569C629.947 295.269 629.061 295.654 628.115 295.654Z" fill="#262726"/>
<path fill-rule="evenodd" clip-rule="evenodd" d="M294.893 191.996L204.265 212.888C197.56 214.726 192.345 220.213 190.65 227.211L179.868 271.727L269.759 259.997L294.893 191.996Z" fill="#E57154"/>
<path fill-rule="evenodd" clip-rule="evenodd" d="M293.638 193.12L204.435 213.684C198.037 215.439 193.035 220.702 191.41 227.411L180.908 270.769L269.197 259.249L293.638 193.12ZM179.869 272.543C179.645 272.543 179.431 272.444 179.282 272.268C179.11 272.066 179.046 271.789 179.109 271.527L189.891 227.011C191.655 219.727 197.087 214.013 204.066 212.1L294.724 191.2C295.006 191.136 295.299 191.236 295.487 191.464C295.675 191.692 295.728 192.008 295.625 192.289L270.491 260.29C270.387 260.571 270.144 260.769 269.857 260.807L179.966 272.536C179.934 272.541 179.9 272.543 179.869 272.543Z" fill="#262726"/>
<path fill-rule="evenodd" clip-rule="evenodd" d="M179.868 271.727V368.477L269.759 381.157V259.997L179.868 271.727Z" fill="#20ADAD"/>
<path fill-rule="evenodd" clip-rule="evenodd" d="M180.652 367.764L268.976 380.224V260.921L180.652 272.447V367.764ZM269.76 381.973C269.725 381.973 269.69 381.97 269.655 381.965L179.763 369.284C179.375 369.23 179.085 368.884 179.085 368.477V271.727C179.085 271.316 179.379 270.969 179.771 270.918L269.662 259.188C269.885 259.158 270.11 259.231 270.278 259.385C270.447 259.54 270.543 259.763 270.543 259.997V381.157C270.543 381.392 270.446 381.616 270.275 381.771C270.132 381.902 269.948 381.973 269.76 381.973Z" fill="#262726"/>
<path fill-rule="evenodd" clip-rule="evenodd" d="M297.317 191.864C291.664 191.121 286.366 194.883 284.967 200.634L269.989 262.178L269.76 381.157L305.379 379.302C309.718 379.076 313.124 375.348 313.124 370.826V348.758C313.124 331.66 326.439 317.799 342.864 317.799H343.465C359.89 317.799 373.205 331.66 373.205 348.758V375.77L375.154 375.668V200.383L297.317 191.864Z" fill="#55B9A4"/>
<path fill-rule="evenodd" clip-rule="evenodd" d="M284.963 355.898H284.942C284.371 355.898 283.908 355.415 283.908 354.821V270.525C283.908 269.93 284.371 269.448 284.942 269.448H284.963C285.534 269.448 285.997 269.93 285.997 270.525V354.821C285.997 355.415 285.534 355.898 284.963 355.898Z" fill="#E2EBB7"/>
<path fill-rule="evenodd" clip-rule="evenodd" d="M270.773 262.281L270.545 380.3L305.339 378.488C309.266 378.283 312.341 374.918 312.341 370.826V348.758C312.341 331.237 326.033 316.983 342.864 316.983H343.465C360.295 316.983 373.988 331.237 373.988 348.758V374.912L374.37 374.893V201.117L297.235 192.675C296.781 192.615 296.335 192.587 295.896 192.587C291.089 192.587 286.907 195.978 285.726 200.834L270.773 262.281ZM269.76 381.973C269.559 381.973 269.366 381.892 269.219 381.747C269.064 381.593 268.977 381.379 268.977 381.155L269.206 262.177C269.206 262.11 269.213 262.043 269.23 261.978L284.207 200.434C285.565 194.853 290.372 190.955 295.896 190.955C296.401 190.955 296.912 190.989 297.415 191.055L375.235 199.572C375.635 199.615 375.937 199.965 375.937 200.383V375.668C375.937 376.103 375.61 376.461 375.193 376.483L373.243 376.584C373.034 376.602 372.82 376.514 372.664 376.361C372.509 376.206 372.421 375.993 372.421 375.769V348.758C372.421 332.137 359.431 318.615 343.465 318.615H342.864C326.897 318.615 313.908 332.137 313.908 348.758V370.826C313.908 375.788 310.178 379.869 305.417 380.117L269.799 381.973C269.786 381.973 269.773 381.973 269.76 381.973Z" fill="#262726"/>
<path fill-rule="evenodd" clip-rule="evenodd" d="M287.303 371.121C286.87 371.121 286.52 370.756 286.52 370.306V262.856C286.52 262.406 286.87 262.041 287.303 262.041C287.736 262.041 288.087 262.406 288.087 262.856V370.306C288.087 370.756 287.736 371.121 287.303 371.121Z" fill="#262726"/>
<path fill-rule="evenodd" clip-rule="evenodd" d="M292.003 370.578C291.583 370.578 291.235 370.231 291.22 369.79C291.206 369.34 291.544 368.962 291.977 368.947L300.056 368.657C303.595 368.53 306.367 365.543 306.367 361.857V337.412C306.367 337.348 306.374 337.283 306.389 337.221C313.492 306.443 338.069 301.538 352.087 301.354C355.964 301.303 359.118 298.004 359.118 294.001V267.273C359.118 266.823 359.469 266.458 359.902 266.458C360.334 266.458 360.685 266.823 360.685 267.273V294.001C360.685 298.892 356.837 302.922 352.108 302.985C338.559 303.163 314.817 307.886 307.934 337.508V361.857C307.934 366.427 304.497 370.13 300.11 370.287L292.031 370.578C292.022 370.578 292.012 370.578 292.003 370.578Z" fill="#262726"/>
<path fill-rule="evenodd" clip-rule="evenodd" d="M290.363 215.91L283.459 257.968C283.188 259.617 284.37 261.139 285.976 261.208L358.663 264.332C360.177 264.397 361.439 263.137 361.439 261.56V212.94C361.439 211.535 360.431 210.352 359.092 210.185L306.266 203.562C298.65 202.608 291.655 208.04 290.363 215.91Z" fill="#55B9A4"/>
<path fill-rule="evenodd" clip-rule="evenodd" d="M290.607 214.208L283.46 257.745C283.179 259.452 284.404 261.027 286.066 261.099L361.308 264.332C362.875 264.4 364.181 263.095 364.181 261.462V211.133C364.181 209.68 363.137 208.455 361.751 208.281L307.068 201.426C299.185 200.439 291.944 206.061 290.607 214.208Z" fill="#E2EBB7"/>
<path fill-rule="evenodd" clip-rule="evenodd" d="M304.529 204.269C297.888 204.269 292.255 209.223 291.135 216.048L284.231 258.106C284.139 258.661 284.282 259.23 284.622 259.668C284.963 260.106 285.468 260.37 286.008 260.394L358.775 263.519C359.276 263.519 359.747 263.316 360.102 262.947C360.459 262.576 360.655 262.084 360.655 261.559V212.94C360.655 211.949 359.942 211.113 358.998 210.994L306.171 204.372C305.627 204.304 305.074 204.269 304.529 204.269ZM358.775 265.15L358.63 265.147L285.943 262.023C284.953 261.981 284.027 261.496 283.404 260.694C282.781 259.891 282.519 258.848 282.686 257.831L289.59 215.773C290.839 208.162 297.122 202.638 304.529 202.638C305.137 202.638 305.752 202.677 306.359 202.753L359.185 209.375C360.916 209.592 362.222 211.124 362.222 212.94V261.559C362.222 262.52 361.863 263.423 361.209 264.101C360.558 264.778 359.694 265.15 358.775 265.15Z" fill="#262726"/>
<path fill-rule="evenodd" clip-rule="evenodd" d="M290.053 218.072L283.457 258.253C283.198 259.828 284.328 261.282 285.862 261.348L355.303 264.333C356.75 264.394 357.955 263.191 357.955 261.684V215.235C357.955 213.893 356.992 212.763 355.713 212.603L305.245 206.276C297.97 205.364 291.287 210.554 290.053 218.072Z" fill="#262726"/>
<path fill-rule="evenodd" clip-rule="evenodd" d="M303.587 206.988C297.26 206.988 291.892 211.708 290.824 218.21L284.229 258.39C284.144 258.91 284.277 259.443 284.596 259.854C284.915 260.264 285.388 260.511 285.894 260.533L355.41 263.519C355.879 263.519 356.321 263.328 356.654 262.983C356.987 262.636 357.172 262.175 357.172 261.684V215.234C357.172 214.307 356.504 213.523 355.619 213.412L305.152 207.086C304.633 207.021 304.106 206.988 303.587 206.988ZM355.41 265.15L355.271 265.147L285.83 262.162C284.874 262.122 283.98 261.654 283.378 260.879C282.776 260.105 282.523 259.098 282.684 258.115L289.28 217.935C290.476 210.647 296.493 205.356 303.587 205.356C304.169 205.356 304.758 205.394 305.339 205.466L355.806 211.793C357.478 212.003 358.739 213.482 358.739 215.234V261.684C358.739 262.611 358.391 263.483 357.76 264.137C357.131 264.791 356.297 265.15 355.41 265.15Z" fill="#262726"/>
<path fill-rule="evenodd" clip-rule="evenodd" d="M274.875 206.425L195.553 224.197C194.179 224.505 193.096 225.603 192.764 227.023L186.001 255.922C185.326 258.808 187.66 261.492 190.485 261.08L264.886 250.225C267.781 249.802 270.145 247.605 270.876 244.659L279.193 211.107C279.874 208.36 277.539 205.828 274.875 206.425Z" fill="#262726"/>
<path fill-rule="evenodd" clip-rule="evenodd" d="M275.661 207.153C275.455 207.153 275.245 207.176 275.039 207.222L195.717 224.994C194.645 225.234 193.784 226.107 193.524 227.216L186.762 256.116C186.524 257.132 186.743 258.186 187.362 259.007C187.986 259.833 188.914 260.307 189.91 260.307H189.91C190.063 260.307 190.219 260.296 190.376 260.273L264.777 249.417C267.367 249.039 269.463 247.092 270.117 244.455L278.434 210.903C278.658 209.998 278.473 209.058 277.927 208.323C277.373 207.579 276.547 207.153 275.661 207.153ZM189.91 261.938C189.91 261.938 189.91 261.938 189.91 261.938C188.43 261.938 187.053 261.237 186.13 260.014C185.212 258.798 184.887 257.236 185.24 255.729L192.002 226.83C192.403 225.117 193.732 223.771 195.387 223.4L274.709 205.628C276.392 205.251 278.117 205.914 279.165 207.324C280.011 208.461 280.298 209.914 279.951 211.311L271.634 244.863C270.821 248.141 268.215 250.563 264.995 251.032L190.593 261.888C190.362 261.922 190.135 261.938 189.91 261.938Z" fill="#262726"/>
<path fill-rule="evenodd" clip-rule="evenodd" d="M190.389 313.502C190.389 321.182 186.947 327.407 182.702 327.407C178.457 327.407 175.015 321.182 175.015 313.502C175.015 305.823 178.457 299.597 182.702 299.597C186.947 299.597 190.389 305.823 190.389 313.502Z" fill="#E57154"/>
<path fill-rule="evenodd" clip-rule="evenodd" d="M182.701 300.413C178.959 300.413 175.798 306.407 175.798 313.502C175.798 320.598 178.959 326.592 182.701 326.592C186.444 326.592 189.605 320.598 189.605 313.502C189.605 306.407 186.444 300.413 182.701 300.413ZM182.701 328.223C177.952 328.223 174.231 321.757 174.231 313.502C174.231 305.247 177.952 298.781 182.701 298.781C187.451 298.781 191.172 305.247 191.172 313.502C191.172 321.757 187.451 328.223 182.701 328.223Z" fill="#262726"/>
<path fill-rule="evenodd" clip-rule="evenodd" d="M186.771 313.502C186.771 320.49 183.64 326.155 179.777 326.155C175.914 326.155 172.783 320.49 172.783 313.502C172.783 306.515 175.914 300.851 179.777 300.851C183.64 300.851 186.771 306.515 186.771 313.502Z" fill="#E57154"/>
<path fill-rule="evenodd" clip-rule="evenodd" d="M179.778 301.666C176.411 301.666 173.567 307.086 173.567 313.502C173.567 319.919 176.411 325.339 179.778 325.339C183.144 325.339 185.988 319.919 185.988 313.502C185.988 307.086 183.144 301.666 179.778 301.666ZM179.778 326.97C175.416 326.97 172 321.054 172 313.502C172 305.95 175.416 300.035 179.778 300.035C184.139 300.035 187.555 305.95 187.555 313.502C187.555 321.054 184.139 326.97 179.778 326.97Z" fill="#262726"/>
<path fill-rule="evenodd" clip-rule="evenodd" d="M183.072 313.144C183.072 318.154 180.827 322.215 178.057 322.215C175.288 322.215 173.043 318.154 173.043 313.144C173.043 308.135 175.288 304.073 178.057 304.073C180.827 304.073 183.072 308.135 183.072 313.144Z" fill="#A7A6A8"/>
<path fill-rule="evenodd" clip-rule="evenodd" d="M266.197 310.1C266.197 319.099 262.165 326.393 257.191 326.393C252.217 326.393 248.185 319.099 248.185 310.1C248.185 301.103 252.217 293.808 257.191 293.808C262.165 293.808 266.197 301.103 266.197 310.1Z" fill="#E57154"/>
<path fill-rule="evenodd" clip-rule="evenodd" d="M257.19 294.624C252.656 294.624 248.967 301.567 248.967 310.101C248.967 318.634 252.656 325.578 257.19 325.578C261.725 325.578 265.413 318.634 265.413 310.101C265.413 301.567 261.725 294.624 257.19 294.624ZM257.19 327.209C251.701 327.209 247.4 319.694 247.4 310.101C247.4 300.508 251.701 292.993 257.19 292.993C262.68 292.993 266.98 300.508 266.98 310.101C266.98 319.694 262.68 327.209 257.19 327.209Z" fill="#262726"/>
<path fill-rule="evenodd" clip-rule="evenodd" d="M261.96 310.101C261.96 318.288 258.291 324.925 253.765 324.925C249.239 324.925 245.57 318.288 245.57 310.101C245.57 301.914 249.239 295.277 253.765 295.277C258.291 295.277 261.96 301.914 261.96 310.101Z" fill="#E57154"/>
<path fill-rule="evenodd" clip-rule="evenodd" d="M253.765 296.092C249.748 296.092 246.354 302.507 246.354 310.101C246.354 317.694 249.748 324.109 253.765 324.109C257.783 324.109 261.177 317.694 261.177 310.101C261.177 302.507 257.783 296.092 253.765 296.092ZM253.765 325.74C248.731 325.74 244.787 318.87 244.787 310.101C244.787 301.331 248.731 294.461 253.765 294.461C258.8 294.461 262.743 301.331 262.743 310.101C262.743 318.87 258.8 325.74 253.765 325.74Z" fill="#262726"/>
<path fill-rule="evenodd" clip-rule="evenodd" d="M257.625 309.681C257.625 315.551 254.994 320.31 251.75 320.31C248.505 320.31 245.874 315.551 245.874 309.681C245.874 303.811 248.505 299.053 251.75 299.053C254.994 299.053 257.625 303.811 257.625 309.681Z" fill="#A7A6A8"/>
<path fill-rule="evenodd" clip-rule="evenodd" d="M190.925 281.174L247.65 275.394C250.743 275.079 253.411 277.477 253.308 280.479L253.221 283.04C253.09 286.874 251.171 290.487 247.915 292.682C244.376 295.068 240.106 299.479 239.072 307.179C237.236 320.866 237.761 333.033 237.761 333.033L191.061 333.793L191.848 303.883C191.848 303.883 191.026 299.276 188.601 295.974C187.072 293.891 186.339 291.358 186.339 288.804V286.097C186.339 283.564 188.318 281.439 190.925 281.174Z" fill="#A7A6A8"/>
<path fill-rule="evenodd" clip-rule="evenodd" d="M248.196 276.181C248.041 276.181 247.884 276.189 247.726 276.205L191.002 281.985C188.79 282.211 187.122 283.978 187.122 286.096V288.804C187.122 291.299 187.849 293.606 189.223 295.478C191.734 298.897 192.584 303.538 192.619 303.734C192.629 303.791 192.633 303.848 192.631 303.905L191.867 332.965L236.951 332.23C236.875 329.234 236.745 318.629 238.297 307.066C239.378 299.005 243.893 294.422 247.489 291.998C250.465 289.992 252.315 286.632 252.438 283.01L252.525 280.45C252.561 279.393 252.177 278.374 251.443 277.583C250.617 276.692 249.434 276.181 248.196 276.181ZM191.062 334.609C190.852 334.609 190.651 334.522 190.504 334.367C190.354 334.208 190.272 333.993 190.278 333.771L191.063 303.953C190.941 303.339 190.088 299.341 187.979 296.469C186.393 294.31 185.556 291.659 185.556 288.804V286.096C185.556 283.135 187.831 280.67 190.849 280.362L247.573 274.582C249.48 274.388 251.312 275.094 252.57 276.45C253.602 277.563 254.142 279.004 254.091 280.508L254.004 283.069C253.862 287.221 251.745 291.071 248.341 293.367C245.018 295.607 240.848 299.84 239.848 307.291C238.043 320.749 238.538 332.876 238.543 332.996C238.553 333.216 238.476 333.431 238.331 333.592C238.186 333.752 237.984 333.845 237.773 333.848L191.074 334.609C191.069 334.609 191.065 334.609 191.062 334.609Z" fill="#262726"/>
<path fill-rule="evenodd" clip-rule="evenodd" d="M193.189 284.237L242.769 278.794C245.473 278.497 247.804 280.755 247.715 283.583L247.639 285.994C247.525 289.605 245.847 293.008 243.001 295.076C239.908 297.323 236.175 301.477 235.272 308.728C233.667 321.619 234.126 333.077 234.126 333.077L193.307 333.793L193.995 305.625C193.995 305.625 193.277 301.286 191.157 298.175C189.82 296.213 189.18 293.829 189.18 291.423V288.874C189.18 286.488 190.909 284.487 193.189 284.237Z" fill="#262726"/>
<path fill-rule="evenodd" clip-rule="evenodd" d="M243.247 279.583C243.117 279.583 242.984 279.59 242.852 279.605L193.271 285.049C191.385 285.255 189.963 286.9 189.963 288.874V291.423C189.963 293.772 190.597 295.944 191.796 297.704C193.993 300.928 194.737 305.302 194.767 305.486C194.776 305.539 194.78 305.592 194.778 305.645L194.112 332.963L233.319 332.275C233.251 329.394 233.146 319.456 234.495 308.623C235.441 301.024 239.399 296.698 242.553 294.407C245.14 292.528 246.748 289.373 246.856 285.968L246.932 283.556C246.966 282.505 246.597 281.511 245.896 280.756C245.192 280 244.252 279.583 243.247 279.583ZM193.307 334.609C193.098 334.609 192.899 334.522 192.751 334.367C192.601 334.21 192.519 333.995 192.524 333.772L193.21 305.689C193.104 305.114 192.359 301.349 190.518 298.647C189.13 296.61 188.396 294.112 188.396 291.423V288.874C188.396 286.063 190.421 283.721 193.106 283.426L242.687 277.982C244.337 277.803 245.891 278.406 247.022 279.622C248.021 280.697 248.545 282.113 248.498 283.61L248.422 286.021C248.298 289.937 246.439 293.573 243.449 295.745C240.555 297.847 236.921 301.825 236.049 308.833C234.47 321.508 234.904 332.929 234.908 333.043C234.917 333.262 234.84 333.477 234.695 333.636C234.55 333.797 234.35 333.889 234.139 333.893L193.321 334.609C193.316 334.609 193.312 334.609 193.307 334.609Z" fill="#262726"/>
<path fill-rule="evenodd" clip-rule="evenodd" d="M201.057 282.06C200.331 282.129 199.603 282.192 198.875 282.249C194.85 298.159 195.91 314.513 197 330.683C198.44 330.578 199.921 330.788 201.205 331.277C200.246 326.977 199.682 322.637 199.118 318.3C197.546 306.211 198.972 291.933 201.057 282.06Z" fill="#A7A6A8"/>
<path fill-rule="evenodd" clip-rule="evenodd" d="M197.73 329.891C198.574 329.891 199.415 329.989 200.216 330.178C199.41 326.254 198.892 322.271 198.39 318.407C196.827 306.392 198.228 292.404 200.129 282.914C199.904 282.933 199.68 282.952 199.455 282.971C195.644 298.478 196.643 314.434 197.684 329.891C197.699 329.891 197.715 329.891 197.73 329.891ZM201.205 332.043C201.12 332.043 201.034 332.028 200.951 331.996C199.769 331.546 198.394 331.35 197.051 331.448C196.639 331.461 196.294 331.158 196.266 330.737C195.189 314.75 194.074 298.219 198.163 282.054C198.243 281.738 198.507 281.51 198.82 281.485C199.544 281.429 200.268 281.366 200.99 281.297C201.223 281.274 201.453 281.37 201.608 281.553C201.764 281.736 201.826 281.986 201.775 282.225C199.799 291.584 198.254 305.948 199.847 318.197C200.4 322.448 200.971 326.841 201.921 331.104C201.982 331.378 201.894 331.665 201.692 331.851C201.555 331.977 201.381 332.043 201.205 332.043Z" fill="#262726"/>
<path fill-rule="evenodd" clip-rule="evenodd" d="M207.832 281.201C207.106 281.27 206.378 281.333 205.651 281.389C201.626 297.299 202.685 313.653 203.775 329.824C205.216 329.719 206.696 329.929 207.98 330.418C207.022 326.118 206.457 321.777 205.893 317.44C204.322 305.352 205.747 291.073 207.832 281.201Z" fill="#A7A6A8"/>
<path fill-rule="evenodd" clip-rule="evenodd" d="M204.506 329.032C205.35 329.032 206.192 329.13 206.992 329.319C206.185 325.391 205.667 321.408 205.165 317.543C203.603 305.533 205.004 291.545 206.905 282.054C206.68 282.074 206.456 282.093 206.231 282.111C202.421 297.618 203.42 313.574 204.46 329.032C204.476 329.032 204.491 329.032 204.506 329.032ZM207.981 331.184C207.896 331.184 207.811 331.169 207.728 331.137C206.546 330.686 205.172 330.491 203.827 330.588C203.417 330.601 203.07 330.299 203.042 329.878C201.965 313.89 200.851 297.358 204.94 281.195C205.019 280.879 205.283 280.65 205.596 280.626C206.32 280.57 207.044 280.507 207.766 280.438C208.001 280.412 208.229 280.511 208.384 280.694C208.54 280.877 208.602 281.127 208.551 281.365C206.575 290.724 205.03 305.089 206.623 317.338C207.175 321.585 207.746 325.978 208.698 330.245C208.759 330.519 208.671 330.805 208.468 330.992C208.332 331.117 208.157 331.184 207.981 331.184Z" fill="#262726"/>
<path fill-rule="evenodd" clip-rule="evenodd" d="M214.609 280.342C213.882 280.41 213.155 280.473 212.427 280.53C208.402 296.44 209.462 312.794 210.551 328.964C211.992 328.86 213.473 329.069 214.756 329.558C213.798 325.258 213.234 320.918 212.67 316.581C211.098 304.492 212.523 290.214 214.609 280.342Z" fill="#A7A6A8"/>
<path fill-rule="evenodd" clip-rule="evenodd" d="M211.279 328.172C212.124 328.172 212.967 328.27 213.767 328.459C212.961 324.533 212.443 320.549 211.941 316.685C210.379 304.673 211.78 290.685 213.681 281.194C213.456 281.215 213.231 281.233 213.007 281.252C209.196 296.761 210.195 312.715 211.236 328.172C211.25 328.172 211.264 328.172 211.279 328.172ZM214.756 330.325C214.671 330.325 214.586 330.309 214.503 330.277C213.322 329.827 211.945 329.629 210.602 329.728C210.185 329.747 209.846 329.439 209.818 329.018C208.74 313.031 207.626 296.501 211.715 280.335C211.795 280.019 212.059 279.791 212.371 279.767C213.096 279.71 213.819 279.647 214.541 279.579C214.777 279.553 215.005 279.651 215.16 279.834C215.316 280.018 215.377 280.267 215.327 280.506C213.35 289.865 211.806 304.23 213.399 316.478C213.952 320.727 214.523 325.121 215.473 329.386C215.534 329.659 215.446 329.946 215.243 330.132C215.107 330.258 214.933 330.325 214.756 330.325Z" fill="#262726"/>
<path fill-rule="evenodd" clip-rule="evenodd" d="M221.385 279.482C220.659 279.551 219.931 279.614 219.203 279.671C215.178 295.58 216.238 311.935 217.328 328.105C218.769 328.001 220.249 328.209 221.533 328.699C220.575 324.399 220.01 320.058 219.446 315.721C217.874 303.633 219.3 289.354 221.385 279.482Z" fill="#A7A6A8"/>
<path fill-rule="evenodd" clip-rule="evenodd" d="M218.054 327.313C218.9 327.313 219.742 327.411 220.544 327.6C219.737 323.671 219.219 319.688 218.716 315.824C217.155 303.814 218.556 289.826 220.456 280.335C220.232 280.355 220.008 280.374 219.783 280.392C215.973 295.899 216.971 311.855 218.012 327.313C218.026 327.313 218.04 327.313 218.054 327.313ZM221.533 329.465C221.448 329.465 221.362 329.45 221.28 329.418C220.098 328.967 218.722 328.769 217.378 328.869C216.973 328.888 216.622 328.579 216.594 328.159C215.516 312.171 214.403 295.639 218.492 279.475C218.571 279.16 218.835 278.931 219.148 278.907C219.872 278.85 220.595 278.788 221.317 278.72C221.551 278.694 221.781 278.791 221.936 278.975C222.091 279.159 222.154 279.408 222.103 279.646C220.127 289.005 218.582 303.37 220.175 315.619C220.727 319.866 221.298 324.257 222.249 328.527C222.31 328.8 222.222 329.087 222.02 329.273C221.884 329.398 221.709 329.465 221.533 329.465Z" fill="#262726"/>
<path fill-rule="evenodd" clip-rule="evenodd" d="M228.161 278.622C227.435 278.692 226.708 278.754 225.98 278.811C221.955 294.721 223.014 311.075 224.104 327.246C225.545 327.141 227.025 327.35 228.309 327.839C227.351 323.54 226.786 319.199 226.222 314.862C224.651 302.773 226.076 288.495 228.161 278.622Z" fill="#A7A6A8"/>
<path fill-rule="evenodd" clip-rule="evenodd" d="M224.831 326.453C225.677 326.453 226.519 326.551 227.32 326.74C226.514 322.815 225.996 318.831 225.494 314.966C223.932 302.954 225.333 288.966 227.233 279.476C227.009 279.496 226.784 279.515 226.559 279.533C222.749 295.042 223.748 310.996 224.789 326.453C224.802 326.453 224.817 326.453 224.831 326.453ZM228.309 328.605C228.224 328.605 228.139 328.59 228.056 328.559C226.875 328.109 225.499 327.91 224.155 328.01C223.745 328.029 223.398 327.72 223.37 327.299C222.293 311.313 221.178 294.782 225.268 278.616C225.348 278.301 225.611 278.072 225.924 278.048C226.649 277.991 227.372 277.929 228.094 277.86C228.329 277.836 228.558 277.932 228.713 278.116C228.868 278.299 228.93 278.549 228.88 278.787C226.903 288.146 225.359 302.51 226.951 314.76C227.504 319.009 228.076 323.402 229.026 327.666C229.087 327.94 228.999 328.227 228.797 328.413C228.66 328.539 228.486 328.605 228.309 328.605Z" fill="#262726"/>
<path fill-rule="evenodd" clip-rule="evenodd" d="M234.938 277.763C234.211 277.832 233.484 277.895 232.756 277.952C228.731 293.862 229.791 310.216 230.88 326.386C232.321 326.281 233.802 326.491 235.085 326.98C234.127 322.68 233.563 318.339 232.999 314.003C231.427 301.914 232.852 287.636 234.938 277.763Z" fill="#A7A6A8"/>
<path fill-rule="evenodd" clip-rule="evenodd" d="M231.607 325.594C232.453 325.594 233.295 325.692 234.096 325.881C233.29 321.954 232.772 317.97 232.27 314.105C230.708 302.095 232.109 288.107 234.009 278.617C233.785 278.636 233.56 278.655 233.336 278.673C229.525 294.18 230.524 310.136 231.565 325.594C231.578 325.594 231.593 325.594 231.607 325.594ZM235.086 327.745C235.001 327.745 234.915 327.731 234.833 327.699C233.651 327.248 232.275 327.052 230.931 327.15C230.525 327.17 230.175 326.861 230.146 326.44C229.069 310.452 227.955 293.92 232.044 277.757C232.124 277.44 232.388 277.212 232.701 277.188C233.425 277.131 234.149 277.069 234.87 277C235.103 276.973 235.334 277.073 235.489 277.256C235.644 277.44 235.706 277.689 235.656 277.928C233.679 287.287 232.135 301.651 233.727 313.9C234.28 318.148 234.851 322.54 235.802 326.807C235.863 327.081 235.775 327.367 235.573 327.553C235.436 327.679 235.262 327.745 235.086 327.745Z" fill="#262726"/>
<path fill-rule="evenodd" clip-rule="evenodd" d="M187.517 333.913C187.517 333.913 187.001 322.812 193.193 319.769L234.469 318.336C234.469 318.336 241.177 319.231 242.209 324.603C243.241 329.974 243.413 333.375 243.413 333.375L187.517 333.913Z" fill="#A7A6A8"/>
<path fill-rule="evenodd" clip-rule="evenodd" d="M193.385 320.578C188.775 322.992 188.317 330.614 188.292 333.089L242.566 332.568C242.452 331.249 242.153 328.471 241.441 324.763C240.576 320.266 235.048 319.253 234.426 319.154L193.385 320.578ZM187.517 334.728C187.099 334.728 186.755 334.387 186.734 333.952C186.713 333.476 186.269 322.27 192.858 319.031C192.954 318.984 193.059 318.957 193.166 318.954L234.443 317.521C234.485 317.52 234.527 317.522 234.569 317.527C234.865 317.567 241.848 318.565 242.977 324.443C244.008 329.81 244.188 333.191 244.195 333.333C244.206 333.555 244.13 333.772 243.983 333.934C243.837 334.096 243.633 334.189 243.42 334.191L187.524 334.728C187.522 334.728 187.519 334.728 187.517 334.728Z" fill="#262726"/>
<path fill-rule="evenodd" clip-rule="evenodd" d="M273.46 333.536C273.287 333.548 273.113 333.555 272.939 333.557L179.181 334.27C177.575 334.372 176.338 335.785 176.388 337.459L175.646 359.336C175.834 365.569 180.251 370.782 186.168 371.756L267.917 385.203C268.532 385.305 269.157 385.337 269.778 385.3L269.93 385.291C279.582 384.718 287.061 376.291 286.853 366.229C286.714 359.487 286.493 352.151 287.75 346.401C288.307 343.854 287.831 341.184 286.38 339.053L285.041 337.085C283.283 334.501 280.361 333.055 277.326 333.267L273.46 333.536Z" fill="#20ADAD"/>
<path fill-rule="evenodd" clip-rule="evenodd" d="M277.911 334.062C277.734 334.062 277.557 334.068 277.378 334.081L273.512 334.35C273.323 334.363 273.134 334.371 272.945 334.372L179.187 335.086C178.037 335.16 177.134 336.192 177.171 337.433L176.429 359.365C176.605 365.144 180.752 370.039 186.29 370.95L268.04 384.398C268.6 384.49 269.17 384.521 269.734 384.486L269.886 384.477C279.16 383.926 286.27 375.918 286.07 366.247L286.05 365.313C285.91 358.671 285.765 351.804 286.985 346.221C287.497 343.88 287.044 341.439 285.741 339.524L284.402 337.557C282.913 335.368 280.487 334.062 277.911 334.062ZM269.281 386.131C268.786 386.131 268.285 386.09 267.795 386.009L186.045 372.561C179.766 371.528 175.063 365.977 174.862 359.362L175.605 337.43C175.541 335.355 177.091 333.586 179.133 333.457L272.934 332.741C273.093 332.74 273.25 332.734 273.408 332.723L277.273 332.453C280.588 332.222 283.776 333.814 285.68 336.614L287.019 338.581C288.579 340.874 289.124 343.79 288.513 346.583C287.335 351.97 287.478 358.735 287.617 365.277L287.636 366.212C287.855 376.766 280.096 385.504 269.975 386.106L269.822 386.115C269.643 386.125 269.462 386.131 269.281 386.131Z" fill="#262726"/>
<path fill-rule="evenodd" clip-rule="evenodd" d="M290.894 267.953H287.107C284.403 267.953 282.211 265.671 282.211 262.856V235.535C282.211 232.72 284.403 230.437 287.107 230.437H290.894C293.598 230.437 295.791 232.72 295.791 235.535V262.856C295.791 265.671 293.598 267.953 290.894 267.953Z" fill="#20ADAD"/>
<path fill-rule="evenodd" clip-rule="evenodd" d="M287.107 231.253C284.839 231.253 282.994 233.174 282.994 235.535V262.856C282.994 265.217 284.839 267.138 287.107 267.138H290.894C293.162 267.138 295.007 265.217 295.007 262.856V235.535C295.007 233.174 293.162 231.253 290.894 231.253H287.107ZM290.894 268.769H287.107C283.975 268.769 281.427 266.116 281.427 262.856V235.535C281.427 232.275 283.975 229.622 287.107 229.622H290.894C294.026 229.622 296.574 232.275 296.574 235.535V262.856C296.574 266.116 294.026 268.769 290.894 268.769Z" fill="#262726"/>
<path fill-rule="evenodd" clip-rule="evenodd" d="M287.571 237.871C286.797 237.871 286.125 237.275 286.02 236.455C284.967 228.235 286.37 219.634 289.97 212.236L290.346 211.474C291.153 209.853 291.915 208.322 291.946 206.775C291.962 205.931 291.59 204.989 291.019 204.432C290.683 204.105 290.331 203.956 289.973 203.986C289.112 204.066 288.352 203.398 288.278 202.5C288.204 201.603 288.844 200.813 289.706 200.736C290.95 200.625 292.178 201.093 293.162 202.052C294.379 203.24 295.114 205.075 295.079 206.842C295.033 209.148 294.021 211.181 293.128 212.975L292.765 213.71C289.449 220.526 288.156 228.451 289.126 236.024C289.24 236.917 288.637 237.737 287.779 237.856C287.709 237.866 287.64 237.871 287.571 237.871Z" fill="#E2EBB7"/>
<path fill-rule="evenodd" clip-rule="evenodd" d="M290.065 203.167C290.597 203.167 291.098 203.392 291.554 203.837C292.289 204.554 292.751 205.713 292.729 206.791C292.695 208.528 291.893 210.14 291.043 211.846L290.666 212.609C287.139 219.857 285.764 228.289 286.796 236.347C286.852 236.787 287.245 237.106 287.674 237.048C287.884 237.019 288.068 236.908 288.195 236.735C288.322 236.562 288.377 236.348 288.349 236.132C287.359 228.397 288.679 220.303 292.066 213.342L292.432 212.602C293.286 210.885 294.254 208.942 294.296 206.825C294.326 205.283 293.687 203.682 292.626 202.647C291.802 201.844 290.807 201.458 289.773 201.549C289.564 201.567 289.375 201.669 289.24 201.836C289.105 202.002 289.041 202.213 289.059 202.43C289.093 202.849 289.433 203.177 289.834 203.177C289.961 203.169 290.013 203.167 290.065 203.167ZM287.571 238.686H287.57C286.398 238.686 285.397 237.773 285.243 236.563C284.17 228.181 285.6 219.411 289.271 211.868L289.65 211.101C290.415 209.563 291.136 208.114 291.162 206.758C291.175 206.141 290.895 205.43 290.484 205.027C290.327 204.875 290.186 204.798 290.065 204.798C289.972 204.805 289.903 204.808 289.834 204.808C288.627 204.808 287.601 203.825 287.497 202.57C287.444 201.918 287.637 201.285 288.042 200.785C288.446 200.285 289.014 199.979 289.639 199.923C291.106 199.797 292.56 200.348 293.698 201.457C295.072 202.798 295.901 204.868 295.862 206.858C295.813 209.355 294.756 211.477 293.824 213.35L293.462 214.083C290.219 220.749 288.954 228.505 289.902 235.916C289.985 236.564 289.821 237.207 289.44 237.726C289.058 238.245 288.506 238.578 287.883 238.665C287.779 238.679 287.674 238.686 287.571 238.686Z" fill="#262726"/>
<path fill-rule="evenodd" clip-rule="evenodd" d="M576.001 287.255L562.683 254.224L427.147 245.253V283.585L576.001 287.255Z" fill="#55B9A4"/>
<path fill-rule="evenodd" clip-rule="evenodd" d="M427.147 245.253V283.585L459.538 284.383L451.104 246.839L427.147 245.253Z" fill="#262726"/>
<path fill-rule="evenodd" clip-rule="evenodd" d="M562.683 254.224L451.104 246.839L459.538 284.383L576 287.255L562.683 254.224Z" fill="#55B9A4"/>
<path fill-rule="evenodd" clip-rule="evenodd" d="M427.931 282.788L574.811 286.409L562.147 255.006L427.931 246.122V282.788ZM576.001 288.07C575.997 288.07 575.989 288.07 575.981 288.07L427.129 284.4C426.704 284.389 426.364 284.027 426.364 283.585V245.253C426.364 245.028 426.454 244.813 426.612 244.659C426.769 244.504 426.979 244.422 427.197 244.439L562.731 253.41C563.03 253.43 563.29 253.623 563.405 253.909L576.722 286.939C576.825 287.194 576.797 287.486 576.647 287.714C576.501 287.937 576.261 288.07 576.001 288.07Z" fill="#262726"/>
<path fill-rule="evenodd" clip-rule="evenodd" d="M180.163 341.397L267.717 347.198L280.087 345.052C281.853 344.746 282.977 342.918 282.506 341.121L282.49 341.061C282.103 339.581 280.746 338.608 279.28 338.758L268.501 339.858L180.33 337.465C179.251 337.436 178.372 338.36 178.409 339.482L178.411 339.521C178.444 340.522 179.202 341.334 180.163 341.397Z" fill="#E2EBB7"/>
<path fill-rule="evenodd" clip-rule="evenodd" d="M281.036 199.99L196.62 219.971C196.62 219.971 194.955 221.092 196.228 221.908L281.134 203.354C281.134 203.354 283.876 200.601 281.036 199.99Z" fill="#E2EBB7"/>
<path fill-rule="evenodd" clip-rule="evenodd" d="M453.197 251.166L561.312 257.079L572.477 285.012L460.64 282.157L453.197 251.166Z" fill="#262726"/>
<path fill-rule="evenodd" clip-rule="evenodd" d="M535.721 255.68L517.466 283.608L529.991 283.927L544.593 256.165L535.721 255.68Z" fill="#E2EBB7"/>
<path fill-rule="evenodd" clip-rule="evenodd" d="M497.296 253.578L471.49 282.434L501.642 283.204L523.87 255.031L497.296 253.578Z" fill="#E2EBB7"/>
<path fill-rule="evenodd" clip-rule="evenodd" d="M384.218 191.8C384.218 193.058 383.445 194.077 382.491 194.077C381.538 194.077 380.765 193.058 380.765 191.8C380.765 190.543 381.538 189.523 382.491 189.523C383.445 189.523 384.218 190.543 384.218 191.8Z" fill="#E2EBB7"/>
<path fill-rule="evenodd" clip-rule="evenodd" d="M394.268 193.051C394.268 194.292 393.505 195.298 392.563 195.298C391.621 195.298 390.858 194.292 390.858 193.051C390.858 191.809 391.621 190.803 392.563 190.803C393.505 190.803 394.268 191.809 394.268 193.051Z" fill="#E2EBB7"/>
<path fill-rule="evenodd" clip-rule="evenodd" d="M404.316 194.302C404.316 195.527 403.563 196.52 402.634 196.52C401.705 196.52 400.951 195.527 400.951 194.302C400.951 193.077 401.705 192.083 402.634 192.083C403.563 192.083 404.316 193.077 404.316 194.302Z" fill="#E2EBB7"/>
<path fill-rule="evenodd" clip-rule="evenodd" d="M414.365 195.553C414.365 196.762 413.622 197.742 412.705 197.742C411.788 197.742 411.045 196.762 411.045 195.553C411.045 194.343 411.788 193.363 412.705 193.363C413.622 193.363 414.365 194.343 414.365 195.553Z" fill="#E2EBB7"/>
<path fill-rule="evenodd" clip-rule="evenodd" d="M424.415 196.803C424.415 197.997 423.682 198.964 422.777 198.964C421.872 198.964 421.139 197.997 421.139 196.803C421.139 195.61 421.872 194.643 422.777 194.643C423.682 194.643 424.415 195.61 424.415 196.803Z" fill="#E2EBB7"/>
<path fill-rule="evenodd" clip-rule="evenodd" d="M434.465 198.054C434.465 199.231 433.741 200.186 432.849 200.186C431.956 200.186 431.232 199.231 431.232 198.054C431.232 196.877 431.956 195.923 432.849 195.923C433.741 195.923 434.465 196.877 434.465 198.054Z" fill="#E2EBB7"/>
<path fill-rule="evenodd" clip-rule="evenodd" d="M444.514 199.305C444.514 200.466 443.8 201.407 442.919 201.407C442.039 201.407 441.325 200.466 441.325 199.305C441.325 198.144 442.039 197.203 442.919 197.203C443.8 197.203 444.514 198.144 444.514 199.305Z" fill="#E2EBB7"/>
<path fill-rule="evenodd" clip-rule="evenodd" d="M454.563 200.556C454.563 201.701 453.859 202.629 452.991 202.629C452.123 202.629 451.419 201.701 451.419 200.556C451.419 199.411 452.123 198.483 452.991 198.483C453.859 198.483 454.563 199.411 454.563 200.556Z" fill="#E2EBB7"/>
<path fill-rule="evenodd" clip-rule="evenodd" d="M464.613 201.807C464.613 202.936 463.919 203.851 463.063 203.851C462.207 203.851 461.513 202.936 461.513 201.807C461.513 200.678 462.207 199.763 463.063 199.763C463.919 199.763 464.613 200.678 464.613 201.807Z" fill="#E2EBB7"/>
<path fill-rule="evenodd" clip-rule="evenodd" d="M474.662 203.058C474.662 204.17 473.978 205.073 473.134 205.073C472.29 205.073 471.606 204.17 471.606 203.058C471.606 201.945 472.29 201.043 473.134 201.043C473.978 201.043 474.662 201.945 474.662 203.058Z" fill="#E2EBB7"/>
<path fill-rule="evenodd" clip-rule="evenodd" d="M484.711 204.309C484.711 205.405 484.036 206.294 483.205 206.294C482.373 206.294 481.699 205.405 481.699 204.309C481.699 203.212 482.373 202.323 483.205 202.323C484.036 202.323 484.711 203.212 484.711 204.309Z" fill="#E2EBB7"/>
<path fill-rule="evenodd" clip-rule="evenodd" d="M494.76 205.56C494.76 206.64 494.096 207.516 493.277 207.516C492.457 207.516 491.793 206.64 491.793 205.56C491.793 204.479 492.457 203.603 493.277 203.603C494.096 203.603 494.76 204.479 494.76 205.56Z" fill="#E2EBB7"/>
<path fill-rule="evenodd" clip-rule="evenodd" d="M504.81 206.811C504.81 207.875 504.156 208.738 503.349 208.738C502.541 208.738 501.887 207.875 501.887 206.811C501.887 205.746 502.541 204.883 503.349 204.883C504.156 204.883 504.81 205.746 504.81 206.811Z" fill="#E2EBB7"/>
<path fill-rule="evenodd" clip-rule="evenodd" d="M514.861 208.061C514.861 209.109 514.215 209.959 513.419 209.959C512.626 209.959 511.98 209.109 511.98 208.061C511.98 207.013 512.626 206.163 513.419 206.163C514.215 206.163 514.861 207.013 514.861 208.061Z" fill="#E2EBB7"/>
<path fill-rule="evenodd" clip-rule="evenodd" d="M524.907 209.312C524.907 210.344 524.272 211.181 523.492 211.181C522.708 211.181 522.073 210.344 522.073 209.312C522.073 208.28 522.708 207.443 523.492 207.443C524.272 207.443 524.907 208.28 524.907 209.312Z" fill="#E2EBB7"/>
<path fill-rule="evenodd" clip-rule="evenodd" d="M534.956 210.563C534.956 211.579 534.334 212.403 533.561 212.403C532.793 212.403 532.166 211.579 532.166 210.563C532.166 209.547 532.793 208.723 533.561 208.723C534.334 208.723 534.956 209.547 534.956 210.563Z" fill="#E2EBB7"/>
<path fill-rule="evenodd" clip-rule="evenodd" d="M545.007 211.814C545.007 212.814 544.392 213.624 543.635 213.624C542.875 213.624 542.26 212.814 542.26 211.814C542.26 210.814 542.875 210.003 543.635 210.003C544.392 210.003 545.007 210.814 545.007 211.814Z" fill="#E2EBB7"/>
<path fill-rule="evenodd" clip-rule="evenodd" d="M555.057 213.064C555.057 214.049 554.45 214.846 553.705 214.846C552.96 214.846 552.354 214.049 552.354 213.064C552.354 212.081 552.96 211.283 553.705 211.283C554.45 211.283 555.057 212.081 555.057 213.064Z" fill="#E2EBB7"/>
<path fill-rule="evenodd" clip-rule="evenodd" d="M565.107 214.315C565.107 215.283 564.511 216.068 563.774 216.068C563.041 216.068 562.446 215.283 562.446 214.315C562.446 213.347 563.041 212.563 563.774 212.563C564.511 212.563 565.107 213.347 565.107 214.315Z" fill="#E2EBB7"/>
<path fill-rule="evenodd" clip-rule="evenodd" d="M575.153 215.566C575.153 216.518 574.57 217.29 573.849 217.29C573.127 217.29 572.54 216.518 572.54 215.566C572.54 214.615 573.127 213.843 573.849 213.843C574.57 213.843 575.153 214.615 575.153 215.566Z" fill="#E2EBB7"/>
<path fill-rule="evenodd" clip-rule="evenodd" d="M585.203 216.817C585.203 217.753 584.628 218.511 583.919 218.511C583.209 218.511 582.634 217.753 582.634 216.817C582.634 215.881 583.209 215.123 583.919 215.123C584.628 215.123 585.203 215.881 585.203 216.817Z" fill="#E2EBB7"/>
<path fill-rule="evenodd" clip-rule="evenodd" d="M595.253 218.068C595.253 218.988 594.689 219.733 593.992 219.733C593.294 219.733 592.727 218.988 592.727 218.068C592.727 217.148 593.294 216.403 593.992 216.403C594.689 216.403 595.253 217.148 595.253 218.068Z" fill="#E2EBB7"/>
<path fill-rule="evenodd" clip-rule="evenodd" d="M270.451 381.291C272.671 382.683 275.503 380.926 277.223 378.908C280.613 374.932 282.494 369.763 283.378 364.528C284.262 359.293 284.214 353.942 284.163 348.627C284.122 344.281 283.729 339.22 280.256 336.807C277.514 334.902 273.894 335.44 270.651 336.052C269.136 336.338 267.426 336.763 266.68 338.165C266.044 339.36 266.351 340.834 266.648 342.165C268.977 352.6 269.647 363.435 268.623 374.095C268.371 376.711 268.288 379.935 270.451 381.291Z" fill="#E2EBB7"/>
<path fill-rule="evenodd" clip-rule="evenodd" d="M291.057 264.039C291.146 263.013 290.023 262.421 289.227 261.811C287.247 260.293 286.77 257.444 286.695 254.886C286.675 254.22 286.668 253.533 286.409 252.923C286.151 252.314 285.563 251.8 284.927 251.872C284.274 255.253 284.269 258.767 284.913 262.15C285.092 263.091 285.36 264.09 286.078 264.692C286.718 265.229 287.587 265.339 288.408 265.395C288.955 265.432 289.519 265.453 290.034 265.259C290.549 265.064 291.009 264.607 291.057 264.039Z" fill="#E2EBB7"/>
<path fill-rule="evenodd" clip-rule="evenodd" d="M175.055 308.425C174.181 309.912 173.847 311.734 174.135 313.451C174.247 314.116 174.608 314.898 175.257 314.899C175.872 314.899 176.251 314.167 176.283 313.528C176.315 312.888 176.147 312.233 176.305 311.615C176.501 310.85 177.143 310.32 177.652 309.733C178.161 309.145 178.571 308.282 178.208 307.588C177.892 306.985 177.089 306.805 176.471 307.044C175.853 307.284 175.399 307.84 175.055 308.425Z" fill="#E2EBB7"/>
<path fill-rule="evenodd" clip-rule="evenodd" d="M248.437 303.668C247.563 305.155 247.229 306.976 247.517 308.693C247.628 309.359 247.99 310.141 248.639 310.141C249.254 310.142 249.632 309.41 249.664 308.77C249.696 308.131 249.528 307.476 249.687 306.857C249.883 306.093 250.524 305.562 251.034 304.975C251.543 304.388 251.953 303.525 251.589 302.83C251.274 302.228 250.471 302.048 249.853 302.287C249.235 302.526 248.781 303.083 248.437 303.668Z" fill="#E2EBB7"/>
<path fill-rule="evenodd" clip-rule="evenodd" d="M185.587 281.953C185.587 281.953 186.109 276.924 188.59 276.516L249.829 268.225C249.829 268.225 255.313 269.312 254.66 275.565C254.66 275.565 252.44 272.303 248.784 272.982L189.373 279.507C189.373 279.507 186.24 280.73 185.587 281.953Z" fill="#E2EBB7"/>
<path fill-rule="evenodd" clip-rule="evenodd" d="M355.462 275.602H322.296C321.484 275.602 320.825 274.916 320.825 274.07C320.825 273.224 321.484 272.538 322.296 272.538H355.462C356.275 272.538 356.934 273.224 356.934 274.07C356.934 274.916 356.275 275.602 355.462 275.602Z" fill="#E2EBB7"/>
<path fill-rule="evenodd" clip-rule="evenodd" d="M355.723 284.301H322.558C321.745 284.301 321.086 283.615 321.086 282.769C321.086 281.923 321.745 281.237 322.558 281.237H355.723C356.536 281.237 357.194 281.923 357.194 282.769C357.194 283.615 356.536 284.301 355.723 284.301Z" fill="#E2EBB7"/>
<path fill-rule="evenodd" clip-rule="evenodd" d="M355.985 293H322.819C322.006 293 321.348 292.314 321.348 291.468C321.348 290.622 322.006 289.937 322.819 289.937H355.985C356.797 289.937 357.456 290.622 357.456 291.468C357.456 292.314 356.797 293 355.985 293Z" fill="#E2EBB7"/>
<path fill-rule="evenodd" clip-rule="evenodd" d="M386.823 361.809L388.261 364.843L391.477 365.329L389.15 367.69L389.699 371.023L386.823 369.45L383.947 371.023L384.497 367.69L382.17 365.329L385.386 364.843L386.823 361.809Z" fill="#E2EBB7"/>
<path fill-rule="evenodd" clip-rule="evenodd" d="M400.237 361.176L401.638 364.132L404.772 364.606L402.504 366.907L403.04 370.155L400.237 368.621L397.434 370.155L397.97 366.907L395.702 364.606L398.836 364.132L400.237 361.176Z" fill="#E2EBB7"/>
<path fill-rule="evenodd" clip-rule="evenodd" d="M413.65 360.543L415.015 363.421L418.066 363.883L415.858 366.123L416.38 369.287L413.65 367.793L410.921 369.287L411.443 366.123L409.234 363.883L412.286 363.421L413.65 360.543Z" fill="#E2EBB7"/>
<path fill-rule="evenodd" clip-rule="evenodd" d="M427.064 359.91L428.392 362.711L431.361 363.16L429.212 365.34L429.72 368.418L427.064 366.965L424.408 368.418L424.915 365.34L422.767 363.16L425.736 362.711L427.064 359.91Z" fill="#E2EBB7"/>
<path fill-rule="evenodd" clip-rule="evenodd" d="M440.478 359.277L441.769 362L444.656 362.437L442.567 364.557L443.06 367.55L440.478 366.137L437.895 367.55L438.388 364.557L436.299 362.437L439.186 362L440.478 359.277Z" fill="#E2EBB7"/>
<path fill-rule="evenodd" clip-rule="evenodd" d="M453.891 358.643L455.145 361.289L457.95 361.714L455.921 363.774L456.4 366.682L453.891 365.309L451.382 366.682L451.861 363.774L449.831 361.714L452.636 361.289L453.891 358.643Z" fill="#E2EBB7"/>
<path fill-rule="evenodd" clip-rule="evenodd" d="M467.304 358.01L468.522 360.579L471.245 360.991L469.275 362.99L469.74 365.814L467.304 364.481L464.868 365.814L465.333 362.99L463.363 360.991L466.086 360.579L467.304 358.01Z" fill="#E2EBB7"/>
<path fill-rule="evenodd" clip-rule="evenodd" d="M480.718 357.377L481.899 359.868L484.54 360.268L482.629 362.207L483.08 364.945L480.718 363.653L478.355 364.945L478.807 362.207L476.896 360.268L479.537 359.868L480.718 357.377Z" fill="#E2EBB7"/>
<path fill-rule="evenodd" clip-rule="evenodd" d="M494.131 356.743L495.276 359.157L497.835 359.545L495.983 361.424L496.42 364.077L494.131 362.825L491.842 364.077L492.279 361.424L490.428 359.545L492.987 359.157L494.131 356.743Z" fill="#E2EBB7"/>
<path fill-rule="evenodd" clip-rule="evenodd" d="M507.545 356.11L508.653 358.447L511.13 358.822L509.337 360.641L509.761 363.209L507.545 361.996L505.329 363.209L505.752 360.641L503.96 358.822L506.437 358.447L507.545 356.11Z" fill="#E2EBB7"/>
<path fill-rule="evenodd" clip-rule="evenodd" d="M520.958 355.477L522.03 357.736L524.426 358.099L522.692 359.857L523.102 362.341L520.958 361.168L518.817 362.341L519.223 359.857L517.493 358.099L519.885 357.736L520.958 355.477Z" fill="#E2EBB7"/>
<path fill-rule="evenodd" clip-rule="evenodd" d="M534.373 354.844L535.406 357.026L537.72 357.376L536.045 359.074L536.443 361.472L534.373 360.34L532.304 361.472L532.698 359.074L531.023 357.376L533.337 357.026L534.373 354.844Z" fill="#E2EBB7"/>
<path fill-rule="evenodd" clip-rule="evenodd" d="M186.043 359.024C186.043 361.691 184.377 363.853 182.322 363.853C180.267 363.853 178.601 361.691 178.601 359.024C178.601 356.357 180.267 354.195 182.322 354.195C184.377 354.195 186.043 356.357 186.043 359.024Z" fill="#262726"/>
<path fill-rule="evenodd" clip-rule="evenodd" d="M184.849 359.058C184.849 360.484 184.083 361.641 183.139 361.641C182.194 361.641 181.428 360.484 181.428 359.058C181.428 357.631 182.194 356.475 183.139 356.475C184.083 356.475 184.849 357.631 184.849 359.058Z" fill="#E2EBB7"/>
<path fill-rule="evenodd" clip-rule="evenodd" d="M273.593 218.34L225.02 248.312L270.263 229.35L273.593 218.34Z" fill="#E2EBB7"/>
<path fill-rule="evenodd" clip-rule="evenodd" d="M268.24 234.651L239.514 246.884L266.412 242.263L268.24 234.651Z" fill="#E2EBB7"/>
</g>
<defs>
<clipPath id="clip0_51_610">
<rect width="470" height="295" fill="white" transform="translate(172 125.683)"/>
</clipPath>
</defs>
</svg>
